<svg width="401" height="300" viewBox="0 0 401 300" fill="none" xmlns="http://www.w3.org/2000/svg">
<g clip-path="url(#clip0_84_32)">
<path d="M24.1042 275.489C26.1238 276.198 28.2923 276.376 30.4006 276.005C32.5089 275.634 34.4861 274.725 36.1416 273.368C40.3577 269.829 41.6798 264.001 42.7551 258.603L45.9364 242.635L39.2761 247.221C34.486 250.519 29.5884 253.923 26.2722 258.7C22.9559 263.477 21.5091 269.999 24.1728 275.168" fill="#E6E6E6"/>
<path d="M25.1326 295.932C24.2943 289.824 23.4318 283.638 24.0212 277.465C24.5436 271.983 26.2162 266.629 29.6214 262.237C31.4288 259.911 33.6282 257.918 36.1205 256.348C36.7703 255.938 37.3685 256.967 36.7215 257.376C32.4089 260.101 29.0732 264.126 27.1954 268.869C25.1215 274.144 24.7885 279.894 25.1457 285.497C25.3616 288.886 25.8205 292.252 26.2813 295.614C26.3177 295.766 26.2949 295.927 26.2177 296.063C26.1405 296.199 26.0145 296.3 25.8653 296.347C25.7131 296.388 25.5508 296.367 25.4137 296.289C25.2766 296.211 25.1757 296.083 25.133 295.931L25.1326 295.932Z" fill="#F2F2F2"/>
<path d="M31.1666 286.132C32.0326 287.448 33.2232 288.52 34.6237 289.243C36.0241 289.966 37.5871 290.316 39.1622 290.26C43.2108 290.067 46.5846 287.243 49.6214 284.561L58.6057 276.628L52.6598 276.343C48.3838 276.139 43.9974 275.947 39.9246 277.267C35.8518 278.587 32.0958 281.759 31.3511 285.975" fill="#E6E6E6"/>
<path d="M22.7629 299.442C26.7988 292.301 31.4797 284.365 39.8444 281.828C42.17 281.125 44.6086 280.874 47.0287 281.086C47.7916 281.152 47.6011 282.328 46.8398 282.262C42.7829 281.926 38.7339 282.997 35.3743 285.296C32.1414 287.496 29.6241 290.556 27.4939 293.8C26.1888 295.787 25.0199 297.859 23.8509 299.927C23.4774 300.589 22.3851 300.111 22.7629 299.442Z" fill="#F2F2F2"/>
<path d="M351.401 182.802H215.327C214.24 182.801 213.198 182.368 212.43 181.6C211.662 180.832 211.229 179.79 211.228 178.703V132.799C211.229 131.712 211.662 130.67 212.43 129.902C213.198 129.134 214.24 128.701 215.327 128.7H351.401C352.488 128.701 353.529 129.134 354.298 129.902C355.066 130.67 355.498 131.712 355.5 132.799V178.703C355.498 179.79 355.066 180.832 354.298 181.6C353.529 182.368 352.488 182.801 351.401 182.802Z" fill="#F1F1F1"/>
<path d="M268.609 140.996H232.541V145.095H268.609V140.996Z" fill="#AF3A10"/>
<path d="M316.153 145.914C317.511 145.914 318.612 144.813 318.612 143.455C318.612 142.097 317.511 140.996 316.153 140.996C314.795 140.996 313.694 142.097 313.694 143.455C313.694 144.813 314.795 145.914 316.153 145.914Z" fill="#AF3A10"/>
<path d="M324.35 145.914C325.708 145.914 326.809 144.813 326.809 143.455C326.809 142.097 325.708 140.996 324.35 140.996C322.992 140.996 321.891 142.097 321.891 143.455C321.891 144.813 322.992 145.914 324.35 145.914Z" fill="#AF3A10"/>
<path d="M332.547 145.914C333.906 145.914 335.007 144.813 335.007 143.455C335.007 142.097 333.906 140.996 332.547 140.996C331.189 140.996 330.088 142.097 330.088 143.455C330.088 144.813 331.189 145.914 332.547 145.914Z" fill="#AF3A10"/>
<path d="M351.401 241.002H215.327C214.24 241.001 213.198 240.569 212.43 239.8C211.662 239.032 211.229 237.99 211.228 236.904V190.999C211.229 189.912 211.662 188.871 212.43 188.102C213.198 187.334 214.24 186.902 215.327 186.901H351.401C352.488 186.902 353.529 187.334 354.298 188.102C355.066 188.871 355.498 189.912 355.5 190.999V236.904C355.498 237.99 355.066 239.032 354.298 239.8C353.529 240.569 352.488 241.001 351.401 241.002V241.002Z" fill="#F1F1F1"/>
<path d="M268.609 199.196H232.541V203.295H268.609V199.196Z" fill="#AF3A10"/>
<path d="M316.153 204.115C317.511 204.115 318.612 203.014 318.612 201.656C318.612 200.297 317.511 199.196 316.153 199.196C314.795 199.196 313.694 200.297 313.694 201.656C313.694 203.014 314.795 204.115 316.153 204.115Z" fill="#AF3A10"/>
<path d="M324.35 204.115C325.708 204.115 326.809 203.014 326.809 201.656C326.809 200.297 325.708 199.196 324.35 199.196C322.992 199.196 321.891 200.297 321.891 201.656C321.891 203.014 322.992 204.115 324.35 204.115Z" fill="#AF3A10"/>
<path d="M332.547 204.115C333.906 204.115 335.007 203.014 335.007 201.656C335.007 200.297 333.906 199.196 332.547 199.196C331.189 199.196 330.088 200.297 330.088 201.656C330.088 203.014 331.189 204.115 332.547 204.115Z" fill="#AF3A10"/>
<path d="M351.401 299.203H215.327C214.24 299.201 213.198 298.769 212.43 298.001C211.662 297.233 211.229 296.191 211.228 295.104V249.2C211.229 248.113 211.662 247.071 212.43 246.303C213.198 245.534 214.24 245.102 215.327 245.101H351.401C352.488 245.102 353.529 245.534 354.298 246.303C355.066 247.071 355.498 248.113 355.5 249.2V295.104C355.498 296.191 355.066 297.233 354.298 298.001C353.529 298.769 352.488 299.201 351.401 299.203V299.203Z" fill="#F1F1F1"/>
<path d="M268.609 257.397H232.541V261.495H268.609V257.397Z" fill="#AF3A10"/>
<path d="M316.153 262.315C317.511 262.315 318.612 261.214 318.612 259.856C318.612 258.498 317.511 257.397 316.153 257.397C314.795 257.397 313.694 258.498 313.694 259.856C313.694 261.214 314.795 262.315 316.153 262.315Z" fill="#AF3A10"/>
<path d="M324.35 262.315C325.708 262.315 326.809 261.214 326.809 259.856C326.809 258.498 325.708 257.397 324.35 257.397C322.992 257.397 321.891 258.498 321.891 259.856C321.891 261.214 322.992 262.315 324.35 262.315Z" fill="#AF3A10"/>
<path d="M332.547 262.315C333.906 262.315 335.007 261.214 335.007 259.856C335.007 258.498 333.906 257.397 332.547 257.397C331.189 257.397 330.088 258.498 330.088 259.856C330.088 261.214 331.189 262.315 332.547 262.315Z" fill="#AF3A10"/>
<path d="M300.103 83.8748L299.952 83.7636L299.949 83.7609C299.754 83.6167 299.534 83.5122 299.299 83.4533C299.065 83.3944 298.821 83.3823 298.582 83.4176C298.343 83.4529 298.113 83.535 297.905 83.6592C297.698 83.7833 297.517 83.9471 297.373 84.1412L266.744 125.38H263.375V124.588C263.375 124.393 263.297 124.205 263.159 124.067C263.021 123.929 262.833 123.852 262.638 123.852H260.628C260.432 123.852 260.245 123.929 260.107 124.067C259.969 124.205 259.891 124.393 259.891 124.588V125.38H258.728V124.588C258.728 124.393 258.65 124.205 258.512 124.067C258.374 123.929 258.187 123.852 257.991 123.852H255.981C255.785 123.852 255.598 123.929 255.46 124.067C255.322 124.205 255.244 124.393 255.244 124.588V125.38H254.084V124.588C254.084 124.393 254.007 124.205 253.869 124.067C253.731 123.929 253.543 123.852 253.348 123.852H251.338C251.142 123.852 250.955 123.929 250.817 124.067C250.679 124.205 250.601 124.393 250.601 124.588V125.38H249.438V124.588C249.438 124.393 249.36 124.205 249.222 124.067C249.084 123.929 248.896 123.852 248.701 123.852H246.691C246.495 123.852 246.308 123.929 246.17 124.067C246.032 124.205 245.954 124.393 245.954 124.588V125.38H244.794V124.588C244.794 124.393 244.717 124.205 244.579 124.067C244.441 123.929 244.253 123.852 244.058 123.852H242.047C241.951 123.852 241.855 123.871 241.766 123.908C241.676 123.945 241.595 123.999 241.527 124.067C241.458 124.136 241.404 124.217 241.367 124.306C241.33 124.396 241.311 124.491 241.311 124.588V125.38H240.147V124.588C240.147 124.393 240.07 124.205 239.932 124.067C239.794 123.929 239.606 123.852 239.411 123.852H237.401C237.205 123.852 237.018 123.929 236.88 124.067C236.742 124.205 236.664 124.393 236.664 124.588V125.38H235.5V124.588C235.5 124.393 235.423 124.205 235.285 124.067C235.147 123.929 234.959 123.852 234.764 123.852H232.754C232.558 123.852 232.371 123.929 232.233 124.067C232.095 124.205 232.017 124.393 232.017 124.588V125.38H230.857V124.588C230.857 124.393 230.78 124.205 230.642 124.067C230.503 123.929 230.316 123.852 230.121 123.852H228.11C227.915 123.852 227.728 123.929 227.59 124.067C227.452 124.205 227.374 124.393 227.374 124.588V125.38H226.21V124.588C226.21 124.393 226.133 124.205 225.995 124.067C225.857 123.929 225.669 123.852 225.474 123.852H223.463C223.268 123.852 223.081 123.929 222.943 124.067C222.805 124.205 222.727 124.393 222.727 124.588V125.38H221.567V124.588C221.567 124.393 221.49 124.205 221.351 124.067C221.213 123.929 221.026 123.852 220.831 123.852H218.82C218.625 123.852 218.438 123.929 218.3 124.067C218.161 124.205 218.084 124.393 218.084 124.588V125.38H216.626C216.384 125.38 216.145 125.427 215.921 125.52C215.698 125.612 215.495 125.748 215.324 125.919C215.153 126.09 215.017 126.293 214.925 126.516C214.832 126.74 214.785 126.979 214.785 127.221V128.977C214.785 129.219 214.832 129.458 214.925 129.682C215.017 129.905 215.153 130.108 215.324 130.279C215.495 130.45 215.698 130.586 215.921 130.678C216.145 130.771 216.384 130.818 216.626 130.818H266.439C267.07 130.818 267.681 130.601 268.17 130.202C268.66 129.804 268.997 129.249 269.125 128.632L269.144 128.646L300.48 86.4542L300.483 86.4505C300.774 86.0585 300.898 85.5669 300.826 85.0839C300.755 84.6008 300.495 84.1659 300.103 83.8748V83.8748Z" fill="#3F3D56"/>
<path d="M106.534 283.565L112.721 286.732L127.878 264.373L118.747 259.699L106.534 283.565Z" fill="#FFB7B7"/>
<path d="M105.989 280.737L118.174 286.973L118.175 286.973C120.234 288.028 121.79 289.856 122.501 292.058C123.212 294.259 123.02 296.653 121.966 298.713L121.837 298.965L101.886 288.755L105.989 280.737Z" fill="#2F2E41"/>
<path d="M177.995 292.228H184.945L188.252 265.418H177.994L177.995 292.228Z" fill="#FFB7B7"/>
<path d="M176.222 289.958L189.91 289.958H189.91C192.224 289.958 194.443 290.877 196.078 292.513C197.714 294.149 198.633 296.367 198.634 298.681V298.964L176.222 298.965L176.222 289.958Z" fill="#2F2E41"/>
<path d="M145.483 73.551C145.483 73.551 140.828 69.985 140.828 78.6953L140.093 107.479L148.3 134.671L153.077 125.852L151.117 106.744L145.483 73.551Z" fill="#2F2E41"/>
<path d="M195.271 152.28C195.271 152.28 200.669 178.565 193.832 200.136L190.054 283.074L176.201 281.994L171.344 220.465L166.666 189.881L156.951 217.767L124.927 276.777L110.175 265.263C110.175 265.263 126.523 220.656 138.6 211.29L144.657 142.301L195.271 152.28Z" fill="#2F2E41"/>
<path d="M192.711 30.1894C196.895 22.5349 194.082 12.9376 186.427 8.75329C178.773 4.56897 169.175 7.38213 164.991 15.0366C160.807 22.6912 163.62 32.2884 171.274 36.4728C178.929 40.6571 188.526 37.844 192.711 30.1894Z" fill="#FFB7B7"/>
<path d="M177.733 25.9633C179.626 26.2097 181.055 24.2724 181.717 22.4815C182.38 20.6907 182.884 18.6058 184.531 17.6384C186.78 16.3168 189.657 17.9064 192.229 17.4703C195.134 16.9779 197.022 13.8996 197.17 10.9573C197.318 8.01506 196.148 5.1852 194.999 2.47243L194.598 5.84378C194.651 4.70115 194.411 3.56386 193.899 2.54071C193.388 1.51756 192.622 0.642763 191.676 0L192.193 4.94693C192.083 4.26442 191.839 3.61037 191.476 3.02229C191.112 2.43421 190.636 1.9237 190.075 1.52003C189.514 1.11637 188.879 0.827516 188.205 0.670043C187.532 0.512571 186.835 0.489581 186.153 0.602394L186.234 3.54996C182.879 3.15105 179.495 2.75157 176.131 3.05548C172.766 3.35939 169.378 4.42397 166.827 6.63988C163.013 9.95454 161.62 15.4125 162.087 20.4444C162.555 25.4763 164.632 30.2033 166.797 34.7698C167.342 35.9187 168.095 37.2151 169.358 37.3615C170.493 37.493 171.531 36.5443 171.884 35.4578C172.156 34.3429 172.146 33.1777 171.854 32.0679C171.534 30.3719 171.132 28.6383 171.432 26.9387C171.732 25.2392 172.955 23.5597 174.668 23.3515C176.381 23.1432 178.134 25.1015 177.311 26.6181L177.733 25.9633Z" fill="#2F2E41"/>
<path d="M196.249 159.309L143.524 155.907L147.492 139.466L195.682 150.238L196.249 159.309Z" fill="#CBCBCB"/>
<path d="M163.733 44.1546L167.04 39.5632C167.04 39.5632 170.736 40.8194 180.636 45.7469L181.335 50.0487L198.519 155.738L167.285 154.391L158.78 154.21L155.996 147.97L152.564 154.078L144.258 153.901L135.807 149.001L144.135 123.525L146.83 100.253L142.666 78.3279C142.666 78.3279 137.425 58.1948 157.609 47.3392L163.733 44.1546Z" fill="#2F2E41"/>
<path d="M234.131 124.162C233.366 124.357 232.568 124.381 231.793 124.233C231.018 124.086 230.284 123.77 229.644 123.309C229.004 122.847 228.473 122.251 228.088 121.561C227.704 120.872 227.475 120.107 227.418 119.32L208.888 114.357L216.342 107.738L232.796 113.466C234.124 113.458 235.41 113.937 236.409 114.814C237.407 115.69 238.05 116.902 238.214 118.221C238.379 119.539 238.054 120.872 237.302 121.967C236.549 123.062 235.421 123.843 234.131 124.162V124.162Z" fill="#FFB7B7"/>
<path d="M225.832 121.36C225.442 121.572 225.012 121.7 224.57 121.735C224.128 121.77 223.683 121.712 223.265 121.564L192.782 109.994C185.345 107.358 179.119 102.111 175.262 95.2276L162.55 72.5512C161.657 71.5548 160.97 70.3921 160.527 69.1298C160.084 67.8674 159.895 66.5301 159.97 65.1944C160.044 63.8588 160.381 62.5509 160.962 61.3457C161.543 60.1405 162.355 59.0617 163.353 58.1709C164.351 57.28 165.515 56.5948 166.778 56.1543C168.041 55.7138 169.379 55.5267 170.715 55.6037C172.05 55.6807 173.357 56.0203 174.562 56.6031C175.766 57.1859 176.843 58.0005 177.732 59.0001L199.734 93.8734L227.424 110.107C227.967 110.464 228.387 110.978 228.628 111.58C228.869 112.183 228.919 112.845 228.771 113.477L227.395 119.312C227.247 119.938 226.911 120.504 226.434 120.934C226.251 121.099 226.049 121.242 225.832 121.36V121.36Z" fill="#2F2E41"/>
<path d="M460.972 300.129H-24.4852C-24.6217 300.129 -24.7527 300.074 -24.8492 299.978C-24.9458 299.881 -25 299.75 -25 299.614C-25 299.477 -24.9458 299.346 -24.8492 299.25C-24.7527 299.153 -24.6217 299.099 -24.4852 299.099H460.972C461.108 299.099 461.239 299.153 461.336 299.25C461.432 299.346 461.486 299.477 461.486 299.614C461.486 299.75 461.432 299.881 461.336 299.978C461.239 300.074 461.108 300.129 460.972 300.129Z" fill="#CBCBCB"/>
</g>
<defs>
<clipPath id="clip0_84_32">
<rect width="401" height="300" fill="white"/>
</clipPath>
</defs>
</svg>
