<svg width="400" height="300" viewBox="0 0 400 300" fill="none" xmlns="http://www.w3.org/2000/svg">
<g clip-path="url(#clip0_67_34)">
<path d="M211.353 299.364C224.921 299.364 235.92 288.985 235.92 276.181C235.92 263.377 224.921 252.998 211.353 252.998C197.784 252.998 186.785 263.377 186.785 276.181C186.785 288.985 197.784 299.364 211.353 299.364Z" fill="#FF637B"/>
<path d="M358.122 298.062C371.867 294.167 386.479 290.105 397.379 280.845C407.12 272.571 413.696 259.936 409.66 247.526C405.633 235.143 393.572 226.885 381.118 222.778C374.055 220.449 366.665 219.157 359.279 218.141C351.249 217.038 343.183 216.134 335.122 215.264C302.48 211.741 269.715 209.588 236.827 208.807C220.599 208.422 204.374 208.431 188.144 208.653C173.649 208.852 158.383 208.847 144.937 203.033C134.48 198.513 124.99 190.288 122.076 179.481C118.713 167.005 124.917 154.3 133.815 145.264C138.506 140.502 143.988 136.493 149.644 132.807C155.779 128.809 162.128 125.093 168.615 121.625C181.391 114.797 194.748 108.987 208.547 104.254C215.354 101.918 222.262 99.9028 229.23 98.0438C235.114 96.4741 241.017 94.9021 246.703 92.7634C257.697 88.6289 268.153 81.6255 270.948 70.144C273.597 59.2624 269.13 47.4495 261.3 39.3657C252.24 30.0133 238.58 25.9135 225.484 25.2502C210.782 24.5055 196.418 27.9778 182.599 32.3845C167.86 37.0846 153.439 42.4889 138.388 46.296C123.464 50.0674 108.25 52.736 92.8865 54.2773C85.3654 55.033 77.6169 55.8863 70.051 55.3078C63.7101 54.8229 57.4016 53.0632 52.7285 48.8167C48.7215 45.1756 46.3345 40.1714 47.1552 34.8905C47.3042 33.9314 48.8483 34.3391 48.7002 35.2925C47.7012 41.7208 52.3319 47.6443 58.0382 50.6786C64.6332 54.1855 72.6583 54.1903 80.0007 53.7892C95.9212 52.8818 111.734 50.7248 127.275 47.3404C142.546 44.0492 157.271 39.3441 171.98 34.3181C185.949 29.5446 200.231 24.8857 215.155 23.8518C228.105 22.9546 241.727 24.7348 253.008 31.1207C262.923 36.7331 270.214 46.0926 272.537 56.8329C274.807 67.3281 271.663 77.8917 263.244 85.2156C254.527 92.7986 242.574 96.0406 231.435 99.0265C217.308 102.814 203.483 107.24 190.101 112.988C176.537 118.798 163.529 125.699 151.22 133.615C139.338 141.277 127.613 150.917 123.855 164.585C122.105 170.952 122.428 177.705 125.357 183.719C127.961 189.066 132.25 193.564 137.246 197.033C149.168 205.311 164.192 207.01 178.592 207.179C194.765 207.369 210.938 206.854 227.116 207.105C260.087 207.615 292.99 209.509 325.825 212.786C334.053 213.608 342.27 214.516 350.477 215.511C357.859 216.406 365.266 217.296 372.523 218.885C385.428 221.712 397.985 227.146 406.006 237.471C409.566 241.946 411.771 247.25 412.387 252.815C412.948 258.623 411.442 264.441 408.659 269.608C402.5 281.044 390.963 288.317 378.711 293.096C372.149 295.655 365.342 297.594 358.548 299.52C357.559 299.8 357.136 298.341 358.122 298.062L358.122 298.062Z" fill="#F2F2F2"/>
<path d="M48.1897 47.1221C55.2689 47.1221 61.0078 41.7068 61.0078 35.0266C61.0078 28.3464 55.2689 22.9311 48.1897 22.9311C41.1105 22.9311 35.3717 28.3464 35.3717 35.0266C35.3717 41.7068 41.1105 47.1221 48.1897 47.1221Z" fill="#F2F2F2"/>
<path d="M137.115 70.0532C144.194 70.0532 149.933 64.6379 149.933 57.9577C149.933 51.2775 144.194 45.8622 137.115 45.8622C130.036 45.8622 124.297 51.2775 124.297 57.9577C124.297 64.6379 130.036 70.0532 137.115 70.0532Z" fill="#F2F2F2"/>
<path d="M212.421 24.191C219.5 24.191 225.239 18.7757 225.239 12.0955C225.239 5.41535 219.5 0 212.421 0C205.341 0 199.603 5.41535 199.603 12.0955C199.603 18.7757 205.341 24.191 212.421 24.191Z" fill="#F2F2F2"/>
<path d="M259.42 75.597C266.499 75.597 272.238 70.1817 272.238 63.5015C272.238 56.8214 266.499 51.406 259.42 51.406C252.341 51.406 246.602 56.8214 246.602 63.5015C246.602 70.1817 252.341 75.597 259.42 75.597Z" fill="#F2F2F2"/>
<path d="M195.864 135.067C202.943 135.067 208.682 129.651 208.682 122.971C208.682 116.291 202.943 110.876 195.864 110.876C188.785 110.876 183.046 116.291 183.046 122.971C183.046 129.651 188.785 135.067 195.864 135.067Z" fill="#F2F2F2"/>
<path d="M115.217 163.794C122.297 163.794 128.035 158.378 128.035 151.698C128.035 145.018 122.297 139.603 115.217 139.603C108.138 139.603 102.399 145.018 102.399 151.698C102.399 158.378 108.138 163.794 115.217 163.794Z" fill="#F2F2F2"/>
<path d="M200.671 208.648C207.75 208.648 213.489 203.232 213.489 196.552C213.489 189.872 207.75 184.457 200.671 184.457C193.592 184.457 187.853 189.872 187.853 196.552C187.853 203.232 193.592 208.648 200.671 208.648Z" fill="#F2F2F2"/>
<path d="M292.533 233.847C299.612 233.847 305.351 228.431 305.351 221.751C305.351 215.071 299.612 209.656 292.533 209.656C285.454 209.656 279.715 215.071 279.715 221.751C279.715 228.431 285.454 233.847 292.533 233.847Z" fill="#F2F2F2"/>
<path d="M399.884 228.303C406.963 228.303 412.702 222.888 412.702 216.207C412.702 209.527 406.963 204.112 399.884 204.112C392.805 204.112 387.066 209.527 387.066 216.207C387.066 222.888 392.805 228.303 399.884 228.303Z" fill="#F2F2F2"/>
<path d="M208.721 34.2724C170.324 34.5283 138.886 63.9719 138.341 100.201C138.336 100.536 138.333 102.888 138.334 105.964C138.334 110.474 140.233 114.8 143.612 117.989C146.992 121.179 151.576 122.971 156.356 122.971H156.356C158.725 122.971 161.071 122.53 163.26 121.673C165.448 120.817 167.437 119.562 169.111 117.98C170.786 116.398 172.114 114.52 173.019 112.454C173.924 110.388 174.389 108.174 174.387 105.938C174.385 103.845 174.384 102.397 174.384 102.308C174.383 96.7088 175.926 91.2057 178.862 86.3401C181.799 81.4745 186.027 77.414 191.13 74.5579C196.234 71.7019 202.038 70.1487 207.97 70.0512C213.903 69.9537 219.761 71.3152 224.967 74.0019C230.173 76.6885 234.548 80.6076 237.662 85.3738C240.776 90.14 242.521 95.589 242.727 101.185C242.932 106.781 241.59 112.331 238.833 117.289C236.076 122.247 231.999 126.442 227.002 129.462L227.008 129.469C227.008 129.469 201.357 145.052 193.537 166.429L193.543 166.43C192.168 170.81 191.472 175.353 191.475 179.921C191.475 181.798 191.592 198.226 191.818 211.56C191.897 216.16 193.889 220.547 197.366 223.774C200.842 227 205.523 228.808 210.399 228.807H210.399C212.849 228.807 215.275 228.35 217.537 227.462C219.799 226.573 221.852 225.272 223.58 223.632C225.307 221.992 226.673 220.046 227.6 217.906C228.527 215.766 228.997 213.474 228.982 211.162C228.903 198.951 228.861 184.733 228.861 183.701C228.861 170.575 242.28 157.496 253.302 148.968C265.995 139.147 275.129 125.763 278.798 110.666C279.61 107.557 280.057 104.374 280.133 101.174C280.133 92.3475 278.282 83.6082 274.687 75.4596C271.091 67.3111 265.823 59.9143 259.185 53.6956C252.547 47.4769 244.671 42.5591 236.01 39.2255C227.349 35.892 218.074 34.2086 208.721 34.2724V34.2724Z" fill="#FF637B"/>
<path d="M431.444 300H-18.4117C-18.58 300 -18.7413 299.936 -18.8602 299.824C-18.979 299.711 -19.0458 299.559 -19.0458 299.4C-19.0458 299.241 -18.979 299.089 -18.8602 298.976C-18.7413 298.864 -18.58 298.8 -18.4117 298.8H431.444C431.613 298.8 431.775 298.863 431.894 298.976C432.013 299.088 432.08 299.241 432.08 299.4C432.08 299.559 432.013 299.712 431.894 299.824C431.775 299.937 431.613 300 431.444 300V300Z" fill="#3F3D56"/>
<path d="M316.597 137.585C325.446 137.585 332.62 130.815 332.62 122.465C332.62 114.115 325.446 107.346 316.597 107.346C307.748 107.346 300.574 114.115 300.574 122.465C300.574 130.815 307.748 137.585 316.597 137.585Z" fill="#2F2E41"/>
<path d="M286.989 293.381H280.442L277.326 269.549H286.991L286.989 293.381Z" fill="#A0616A"/>
<path d="M275.765 291.616H288.392V299.119H267.814C267.814 298.133 268.019 297.158 268.419 296.247C268.818 295.337 269.404 294.51 270.142 293.813C270.881 293.117 271.757 292.564 272.722 292.187C273.687 291.81 274.72 291.616 275.765 291.616Z" fill="#2F2E41"/>
<path d="M337.727 293.381H331.18L328.064 269.549H337.729L337.727 293.381Z" fill="#A0616A"/>
<path d="M326.503 291.616H339.13V299.119H318.552C318.552 298.133 318.757 297.158 319.157 296.247C319.557 295.337 320.142 294.51 320.88 293.813C321.619 293.117 322.495 292.564 323.46 292.187C324.425 291.81 325.458 291.616 326.503 291.616V291.616Z" fill="#2F2E41"/>
<path d="M314.162 137.673C321.407 137.673 327.28 132.131 327.28 125.295C327.28 118.458 321.407 112.916 314.162 112.916C306.917 112.916 301.044 118.458 301.044 125.295C301.044 132.131 306.917 137.673 314.162 137.673Z" fill="#A0616A"/>
<path d="M321.981 177.606L327.85 164.88C329.276 161.895 329.684 158.566 329.019 155.352C328.355 152.138 326.649 149.199 324.138 146.938C323.623 146.457 323.075 146.008 322.499 145.593C319.603 143.455 316.033 142.29 312.356 142.282C309.884 142.291 307.443 142.803 305.2 143.783C305.007 143.864 304.821 143.95 304.628 144.035C304.26 144.202 303.897 144.383 303.544 144.57C301.245 145.815 299.288 147.554 297.831 149.644C296.375 151.735 295.459 154.119 295.159 156.605L292.568 177.086C291.917 178.694 268.674 236.753 276.803 281.078C276.889 281.551 277.134 281.986 277.501 282.319C277.868 282.651 278.338 282.865 278.843 282.927L287.084 283.986C287.685 284.063 288.296 283.923 288.792 283.593C289.289 283.263 289.634 282.767 289.759 282.207L303.587 220.01C303.673 219.624 303.894 219.276 304.214 219.022C304.535 218.768 304.936 218.623 305.355 218.609C305.773 218.596 306.184 218.715 306.522 218.948C306.859 219.181 307.105 219.515 307.218 219.895L326.755 285.301C326.895 285.776 327.195 286.195 327.611 286.494C328.027 286.793 328.535 286.954 329.057 286.954C329.213 286.953 329.369 286.94 329.522 286.914L339.589 285.084C340.175 284.981 340.698 284.675 341.057 284.227C341.415 283.778 341.583 283.22 341.528 282.66C340.049 267.092 332.187 189.111 321.981 177.606Z" fill="#2F2E41"/>
<path d="M263.184 135.596C263.093 136.332 263.174 137.077 263.421 137.781C263.668 138.484 264.076 139.127 264.616 139.665C265.155 140.204 265.813 140.624 266.543 140.896C267.274 141.169 268.058 141.287 268.842 141.242L276.174 157.87L281.721 150.111L273.907 135.511C273.741 134.273 273.099 133.137 272.103 132.316C271.107 131.496 269.827 131.048 268.505 131.059C267.184 131.069 265.912 131.537 264.931 132.373C263.95 133.209 263.328 134.356 263.184 135.596L263.184 135.596Z" fill="#A0616A"/>
<path d="M313.435 194.348C314.214 194.26 314.964 194.012 315.631 193.621C316.298 193.23 316.866 192.706 317.295 192.085C317.724 191.465 318.004 190.763 318.114 190.03C318.225 189.296 318.164 188.549 317.935 187.84L333.362 177.237L324.075 173.955L310.849 184.527C309.612 184.968 308.59 185.822 307.977 186.927C307.363 188.032 307.2 189.311 307.519 190.521C307.838 191.732 308.616 192.79 309.706 193.495C310.797 194.201 312.123 194.504 313.435 194.348V194.348Z" fill="#A0616A"/>
<path d="M288.286 168.955C287.694 168.954 287.104 168.899 286.524 168.791C285.121 168.539 283.805 167.965 282.692 167.12C281.579 166.275 280.704 165.184 280.143 163.945L269.87 152.125C269.653 151.875 269.495 151.584 269.407 151.272C269.318 150.959 269.302 150.633 269.358 150.314C269.414 149.995 269.542 149.692 269.732 149.423C269.923 149.155 270.172 148.928 270.464 148.758L277.772 144.489C278.042 144.331 278.342 144.225 278.656 144.178C278.969 144.13 279.289 144.142 279.598 144.211C279.907 144.281 280.197 144.408 280.454 144.585C280.71 144.761 280.927 144.984 281.092 145.24L288.332 156.496L302.198 146.826C303.302 146.28 304.577 146.127 305.791 146.394C307.005 146.662 308.076 147.333 308.809 148.285C309.541 149.236 309.887 150.405 309.782 151.577C309.678 152.749 309.129 153.846 308.238 154.669L294.399 166.581C292.773 168.102 290.575 168.955 288.286 168.955Z" fill="#2F2E41"/>
<path d="M325.752 186.731C325.733 186.731 325.714 186.731 325.695 186.731C325.358 186.723 325.027 186.649 324.722 186.512C324.417 186.376 324.147 186.181 323.927 185.94L317.429 178.786C317.208 178.543 317.044 178.258 316.948 177.95C316.852 177.642 316.827 177.318 316.873 177.001C316.919 176.683 317.037 176.378 317.218 176.106C317.398 175.834 317.638 175.601 317.921 175.423L330.088 167.769L319.065 155.264C318.424 154.255 318.189 153.063 318.403 151.904C318.616 150.745 319.265 149.697 320.23 148.953C321.194 148.208 322.411 147.815 323.657 147.847C324.903 147.878 326.095 148.332 327.016 149.124L340.413 161.478C341.467 162.387 342.272 163.524 342.759 164.791C343.245 166.058 343.398 167.418 343.205 168.753C343.012 170.088 342.479 171.359 341.65 172.457C340.822 173.555 339.724 174.447 338.45 175.056L327.501 186.019C327.276 186.244 327.005 186.423 326.704 186.546C326.403 186.668 326.079 186.731 325.752 186.731Z" fill="#2F2E41"/>
<path d="M310.827 160.374C310.722 160.374 310.618 160.367 310.515 160.355C310.062 160.303 309.635 160.13 309.284 159.856C308.933 159.581 308.672 159.218 308.533 158.808L303.65 144.682C303.528 144.325 303.547 143.938 303.703 143.593C303.86 143.248 304.143 142.968 304.502 142.805L304.66 142.734C304.804 142.67 304.946 142.606 305.091 142.545C307.368 141.549 309.847 141.029 312.356 141.022C315.615 141.027 318.8 141.931 321.522 143.621C321.887 143.85 322.142 144.205 322.232 144.61C322.322 145.015 322.24 145.437 322.004 145.785L312.844 159.326C312.629 159.647 312.331 159.912 311.979 160.095C311.626 160.279 311.23 160.374 310.827 160.374V160.374Z" fill="#E6E6E6"/>
<path d="M329.229 115.715C332.125 115.715 334.472 113.5 334.472 110.768C334.472 108.035 332.125 105.82 329.229 105.82C326.334 105.82 323.986 108.035 323.986 110.768C323.986 113.5 326.334 115.715 329.229 115.715Z" fill="#2F2E41"/>
<path d="M311.256 105.33C307.573 105.33 304.041 106.71 301.437 109.168C298.833 111.625 297.37 114.958 297.37 118.433V123.977H304.596L308.052 118.433L309.089 123.977H331.017L325.142 118.433C325.142 114.958 323.679 111.625 321.075 109.168C318.471 106.71 314.939 105.33 311.256 105.33V105.33Z" fill="#2F2E41"/>
<path d="M331.924 107.379C332.504 105.668 333.704 104.205 335.314 103.247C336.924 102.289 338.84 101.897 340.726 102.14C344.067 102.667 346.709 105.201 348.283 108.032C349.857 110.863 350.584 114.031 351.642 117.067C352.7 120.104 354.201 123.157 356.873 125.123C359.544 127.089 363.643 127.622 366.267 125.6C365.967 127.707 364.973 129.672 363.425 131.217C361.876 132.762 359.853 133.809 357.64 134.209C355.427 134.609 353.136 134.343 351.092 133.447C349.049 132.552 347.355 131.072 346.251 129.219C344.867 126.895 344.509 124.171 344.099 121.533C343.688 118.895 343.155 116.165 341.502 114.003C339.849 111.841 336.755 110.428 334.13 111.413L331.924 107.379Z" fill="#2F2E41"/>
<path d="M161.444 114.927C156.665 114.926 152.081 113.134 148.701 109.945C145.321 106.755 143.422 102.43 143.422 97.9195C143.422 94.8433 143.424 92.4914 143.429 92.1569C143.581 81.6204 146.393 71.2699 151.632 61.9641C143.025 73.0833 138.292 86.452 138.088 100.221C138.083 100.555 138.081 102.907 138.081 105.983C138.082 110.494 139.98 114.819 143.36 118.009C146.74 121.198 151.324 122.99 156.103 122.99V122.99C160.031 122.989 163.851 121.778 166.983 119.541C170.114 117.304 172.387 114.164 173.455 110.597C170.155 113.39 165.877 114.932 161.444 114.927V114.927Z" fill="#3F3D56"/>
<path d="M209.942 70.1083C215.468 70.3574 220.847 71.8682 225.618 74.5111C230.389 77.1539 234.408 80.8499 237.332 85.2816C240.255 89.7134 241.995 94.7484 242.402 99.9545C242.81 105.161 241.872 110.382 239.669 115.171C242.855 111.64 245.196 107.503 246.534 103.041C247.872 98.5791 248.174 93.8974 247.421 89.3152C246.667 84.733 244.876 80.358 242.168 76.4885C239.46 72.6189 235.9 69.3458 231.73 66.8923C227.56 64.4388 222.879 62.8625 218.005 62.271C213.131 61.6796 208.179 62.0867 203.487 63.4648C198.795 64.8428 194.473 67.1593 190.816 70.2564C187.159 73.3535 184.252 77.1583 182.295 81.4115C185.678 77.6555 189.931 74.683 194.724 72.7233C199.518 70.7635 204.724 69.8689 209.942 70.1083V70.1083Z" fill="#3F3D56"/>
<path d="M215.487 220.763C210.611 220.764 205.93 218.956 202.454 215.729C198.978 212.503 196.986 208.116 196.906 203.515C196.68 190.182 196.563 173.754 196.563 171.877C196.56 167.309 197.257 162.765 198.632 158.386L198.626 158.385C199.438 156.186 200.418 154.047 201.56 151.984C198.055 156.39 195.266 161.266 193.285 166.448L193.291 166.45C191.916 170.829 191.219 175.373 191.222 179.94C191.222 181.818 191.339 198.245 191.566 211.579C191.645 216.179 193.637 220.566 197.113 223.793C200.589 227.02 205.27 228.827 210.146 228.826V228.826C214.167 228.826 218.078 227.595 221.295 225.319C224.511 223.043 226.859 219.844 227.986 216.202C224.569 219.142 220.111 220.769 215.487 220.763V220.763Z" fill="#3F3D56"/>
<path d="M48.5359 293.611L55.0833 293.611L58.1986 269.779L48.5343 269.779L48.5359 293.611Z" fill="#FFB8B8"/>
<path d="M67.7115 299.348L47.1329 299.349L47.1325 291.846L59.7603 291.845C61.869 291.845 63.8914 292.636 65.3825 294.043C66.8736 295.45 67.7114 297.358 67.7115 299.348V299.348L67.7115 299.348Z" fill="#2F2E41"/>
<path d="M25.0362 293.611L31.5836 293.611L34.6989 269.779L25.0346 269.779L25.0362 293.611Z" fill="#FFB8B8"/>
<path d="M44.2118 299.348L23.6332 299.349L23.6328 291.846L36.2606 291.845C38.3693 291.845 40.3917 292.636 41.8828 294.043C43.374 295.45 44.2117 297.358 44.2118 299.348V299.348L44.2118 299.348Z" fill="#2F2E41"/>
<path d="M30.758 286.282L24.3624 285.964C24.0326 285.948 23.7095 285.87 23.4119 285.735C23.1143 285.6 22.848 285.41 22.6285 285.178C22.409 284.945 22.2406 284.673 22.1332 284.378C22.0257 284.084 21.9813 283.772 22.0025 283.461L29.6467 203.597L64.8487 212.561L68.2403 211.688L57.6343 282.388C57.5439 282.92 57.264 283.407 56.8408 283.769C56.4176 284.13 55.8764 284.344 55.3066 284.376L48.4122 284.68C48.0675 284.698 47.7225 284.648 47.3991 284.534C47.0757 284.42 46.781 284.244 46.5334 284.016C46.2859 283.789 46.091 283.516 45.961 283.214C45.8311 282.912 45.7689 282.588 45.7784 282.263L47.0276 239.829C47.0334 239.633 46.9612 239.442 46.8251 239.294C46.689 239.145 46.4989 239.05 46.2923 239.027C46.0857 239.005 45.8775 239.056 45.7088 239.171C45.5401 239.285 45.4231 239.456 45.3809 239.648L33.3336 284.408C33.2199 284.939 32.9145 285.416 32.4695 285.759C32.0245 286.101 31.4675 286.287 30.8933 286.285C30.8485 286.285 30.8034 286.284 30.758 286.282Z" fill="#2F2E41"/>
<path d="M49.7115 138.252C56.9562 138.252 62.8291 132.71 62.8291 125.873C62.8291 119.037 56.9562 113.495 49.7115 113.495C42.4668 113.495 36.5938 119.037 36.5938 125.873C36.5938 132.71 42.4668 138.252 49.7115 138.252Z" fill="#FFB8B8"/>
<path d="M27.8715 162.24L29.3138 191.606L29.8352 202.289C29.856 202.755 30.0233 203.203 30.3158 203.578C30.6083 203.953 31.0127 204.237 31.4772 204.394L65.3039 215.957C65.5772 216.053 65.8667 216.101 66.1582 216.098C66.4914 216.1 66.8215 216.038 67.1288 215.916C67.4361 215.795 67.7143 215.616 67.9468 215.391C68.1792 215.166 68.3613 214.898 68.4819 214.605C68.6026 214.312 68.6594 213.999 68.649 213.685L67.2622 160.884C67.1711 156.552 65.4812 152.386 62.4838 149.104C59.4865 145.822 55.3694 143.629 50.8425 142.904C50.5153 142.857 50.1824 142.81 49.8495 142.768C47.0424 142.439 44.1931 142.695 41.502 143.517C38.8109 144.339 36.3433 145.707 34.273 147.526C32.1292 149.387 30.4446 151.669 29.3385 154.211C28.2323 156.754 27.7315 159.495 27.8715 162.24L27.8715 162.24Z" fill="#CCCCCC"/>
<path d="M81.4629 210.097C80.6628 209.863 79.9319 209.455 79.3283 208.907C78.7248 208.359 78.2655 207.685 77.9869 206.94C77.7084 206.194 77.6183 205.398 77.724 204.613C77.8296 203.829 78.1281 203.079 78.5955 202.423L67.1245 188.03L77.0233 187.452L86.3988 201.209C87.4025 201.941 88.101 202.983 88.3716 204.153C88.6423 205.323 88.4679 206.545 87.879 207.605C87.2901 208.666 86.3244 209.497 85.1512 209.952C83.978 210.408 82.6722 210.459 81.4629 210.097H81.4629Z" fill="#FFB8B8"/>
<path d="M73.3976 199.819C73.0937 199.702 72.8172 199.53 72.5843 199.312C72.3513 199.094 72.1665 198.835 72.0404 198.549L54.7584 159.695C54.4193 158.935 54.2424 158.118 54.2378 157.293C54.2332 156.468 54.4009 155.65 54.7315 154.886C55.0621 154.122 55.549 153.426 56.1644 152.84C56.7798 152.254 57.5116 151.787 58.318 151.468C59.1245 151.149 59.9897 150.982 60.8643 150.979C61.7388 150.975 62.6056 151.134 63.4151 151.446C64.2245 151.759 64.9607 152.219 65.5817 152.8C66.2026 153.381 66.6961 154.072 67.034 154.833L84.316 193.688C84.5714 194.264 84.5743 194.912 84.3239 195.49C84.0735 196.068 83.5904 196.529 82.9805 196.771L75.3082 199.81C75.0061 199.931 74.6817 199.993 74.3538 199.995C74.0258 199.996 73.7008 199.936 73.3975 199.819L73.3976 199.819Z" fill="#CCCCCC"/>
<path d="M45.494 198.448L62.093 168.457C62.4131 167.88 62.9626 167.447 63.6209 167.252C64.2792 167.057 64.9926 167.116 65.6045 167.417L89.6979 179.291C90.3091 179.593 90.7684 180.111 90.975 180.732C91.1816 181.354 91.1187 182.027 90.7999 182.604L74.201 212.596C73.8809 213.172 73.3314 213.606 72.6731 213.801C72.0148 213.996 71.3014 213.936 70.6894 213.635L46.5961 201.762C45.9849 201.46 45.5256 200.941 45.319 200.32C45.1123 199.699 45.1753 199.025 45.494 198.448Z" fill="#3F3D56"/>
<path d="M56.6259 184.746C56.3308 184.006 55.8565 183.341 55.241 182.805C54.6254 182.269 53.8855 181.876 53.0804 181.658C52.2753 181.44 51.4273 181.402 50.604 181.548C49.7807 181.693 49.0049 182.019 48.3385 182.498L32.4343 172.542L32.4073 181.901L47.5143 189.92C48.3482 190.822 49.4922 191.419 50.7455 191.605C51.9988 191.791 53.2815 191.554 54.3685 190.937C55.4555 190.32 56.2775 189.361 56.6903 188.229C57.1031 187.097 57.0803 185.864 56.6259 184.746V184.746Z" fill="#FFB8B8"/>
<path d="M36.5176 186.85L23.5197 177.135C22.1136 176.689 20.843 175.928 19.8171 174.918C18.7912 173.907 18.0406 172.676 17.6297 171.331C17.2188 169.986 17.1599 168.567 17.458 167.196C17.7561 165.825 18.4024 164.543 19.3413 163.459L31.1431 148.864C31.9632 147.919 33.1166 147.283 34.3924 147.074C35.6683 146.864 36.9813 147.095 38.0916 147.724C39.2018 148.353 40.0351 149.338 40.4391 150.499C40.843 151.66 40.7907 152.92 40.2917 154.047L30.9539 168.461L44.6766 174.603C44.9957 174.746 45.2791 174.951 45.508 175.205C45.7369 175.459 45.9061 175.755 46.0044 176.075C46.1028 176.396 46.128 176.732 46.0785 177.062C46.029 177.392 45.9058 177.708 45.7171 177.99L40.1777 186.262C39.9905 186.541 39.7432 186.78 39.4518 186.963C39.1605 187.147 38.8316 187.27 38.4864 187.326C38.4727 187.328 38.4589 187.33 38.4452 187.332C38.106 187.381 37.76 187.363 37.4285 187.28C37.0969 187.197 36.7869 187.051 36.5176 186.85V186.85Z" fill="#CCCCCC"/>
<path d="M39.7994 134.162C39.7431 134.007 39.7253 133.841 39.7472 133.678C39.7692 133.516 39.8303 133.36 39.926 133.222C40.0217 133.085 40.1494 132.971 40.2993 132.887C40.4492 132.804 40.6174 132.754 40.7909 132.741C41.1462 132.76 41.4938 132.846 41.8129 132.994C42.132 133.143 42.4159 133.351 42.6474 133.606C43.1221 134.122 43.6748 134.57 44.2877 134.935C44.9222 135.237 45.7828 135.194 46.1446 134.618C46.4843 134.078 46.2515 133.354 46.0459 132.726C45.5226 131.13 45.2298 129.473 45.1754 127.803C45.1161 125.938 45.395 123.992 46.4891 122.537C47.9011 120.66 50.426 119.947 52.8155 119.999C55.205 120.05 57.5558 120.747 59.9227 121.187C60.7398 121.338 61.7002 121.416 62.2467 120.818C62.8278 120.183 62.6144 119.155 62.3673 118.297C61.7258 116.07 61.0454 113.769 59.5552 111.971C57.9438 110.102 55.6422 108.879 53.1137 108.548C50.6862 108.265 48.222 108.529 45.9236 109.319C42.1791 110.432 38.8842 112.598 36.4795 115.527C34.0007 118.642 32.9295 122.556 33.5003 126.413C34.058 129.773 35.9447 132.808 38.7802 134.908L39.7994 134.162Z" fill="#2F2E41"/>
<path d="M205.94 293.71C202.45 292.275 199.361 290.095 196.916 287.341C194.472 284.587 192.74 281.335 191.856 277.841C190.972 274.348 190.96 270.708 191.822 267.209C192.684 263.71 194.396 260.448 196.823 257.681C194.009 259.619 191.665 262.1 189.945 264.959C188.225 267.818 187.169 270.989 186.848 274.263C186.526 277.536 186.946 280.837 188.079 283.945C189.213 287.054 191.034 289.899 193.422 292.293C195.81 294.686 198.71 296.573 201.93 297.829C205.15 299.084 208.616 299.678 212.098 299.573C215.579 299.467 218.998 298.664 222.126 297.217C225.254 295.769 228.019 293.71 230.24 291.177C226.777 293.566 222.711 295.056 218.448 295.5C214.184 295.945 209.872 295.327 205.94 293.71V293.71Z" fill="#3F3D56"/>
</g>
<defs>
<clipPath id="clip0_67_34">
<rect width="400" height="300" fill="white"/>
</clipPath>
</defs>
</svg>
