<svg width="800" height="567" viewBox="0 0 800 567" fill="none" xmlns="http://www.w3.org/2000/svg">
<g clip-path="url(#clip0_70_81)">
<path opacity="0.1" d="M265.967 566.351C304.926 566.351 336.509 561.278 336.509 555.021C336.509 548.763 304.926 543.691 265.967 543.691C227.007 543.691 195.425 548.763 195.425 555.021C195.425 561.278 227.007 566.351 265.967 566.351Z" fill="#AF3A10"/>
<path opacity="0.1" d="M649.424 566.669C698.04 566.669 737.45 561.597 737.45 555.339C737.45 549.082 698.04 544.009 649.424 544.009C600.809 544.009 561.399 549.082 561.399 555.339C561.399 561.597 600.809 566.669 649.424 566.669Z" fill="#AF3A10"/>
<path opacity="0.1" d="M10.0195 244.842H83.4938V344.987H15.3985C15.2175 346.015 15.0438 347.05 14.8556 348.085H83.4938V428.85C83.3707 428.813 83.2621 428.77 83.1463 428.727C81.2061 427.959 79.2804 427.148 77.3547 426.28L76.1239 425.722C74.1934 424.81 72.2628 423.845 70.3323 422.826C69.659 422.472 68.9857 422.102 68.3197 421.726C57.6021 415.722 47.8658 408.115 39.4483 399.167C39.2022 398.929 38.9705 398.675 38.7244 398.443C37.5516 397.169 36.4005 395.881 35.2856 394.563L34.0549 393.115C32.7373 391.501 31.4631 389.843 30.2251 388.163C30.0442 387.917 29.8704 387.671 29.6822 387.439C24.6474 380.458 20.467 372.9 17.2301 364.924C17.1288 364.685 17.0419 364.425 16.9478 364.2C15.9536 361.642 15.0728 359.06 14.3054 356.454C13.9723 355.361 13.6538 354.282 13.3787 353.146C13.2773 352.813 13.1905 352.487 13.1108 352.161C8.99877 336.111 8.51372 319.438 8.51372 302.881C8.51372 300.948 8.51372 299.008 8.51372 297.09C8.51372 290.393 8.59335 283.653 8.70919 276.92C8.70919 275.176 8.78158 273.438 8.81778 271.686C8.91913 267.241 9.06392 262.796 9.25215 258.351C9.29559 257.113 9.35351 255.882 9.41866 254.651C9.41866 253.942 9.45486 253.232 9.52726 252.523C9.70101 249.946 9.8458 247.39 10.0195 244.842Z" fill="#AF3A10"/>
<path opacity="0.1" d="M83.4938 133.338H43.1912C49.7426 123.084 56.9008 113.23 64.6275 103.83C70.6146 96.4743 76.9348 89.3072 83.4938 82.4006V133.338Z" fill="#AF3A10"/>
<path opacity="0.1" d="M83.4938 136.437V241.743H10.2512C10.2512 241.439 10.3019 241.128 10.3236 240.824C10.3888 239.991 10.4539 239.159 10.5263 238.333C10.606 237.363 10.6928 236.386 10.7869 235.438C10.8811 234.489 10.9824 233.331 11.091 232.281C11.1996 231.231 11.301 230.167 11.424 229.117C11.5471 228.068 11.6557 227.018 11.786 225.976C11.9163 224.933 12.0322 223.876 12.1697 222.834C12.2783 221.965 12.3941 221.103 12.51 220.235C12.6765 219.011 12.8502 217.78 13.0384 216.564C13.0384 216.383 13.0891 216.195 13.1181 216.021C14.4394 207.118 16.2399 198.292 18.5116 189.582C20.8895 180.446 23.9259 171.494 27.5972 162.796C31.4991 153.697 36.0676 144.899 41.2655 136.473L83.4938 136.437Z" fill="#AF3A10"/>
<path opacity="0.1" d="M101.035 244.835V344.987H257.967V244.835H101.035ZM101.035 348.078V434.084C101.933 434.272 102.823 434.453 103.707 434.605C104.908 434.837 106.103 435.047 107.326 435.228C107.558 435.264 107.797 435.3 108.05 435.322C108.528 435.401 109.02 435.467 109.498 435.532C110.707 435.698 111.909 435.836 113.118 435.944C113.69 436.002 114.269 436.053 114.848 436.096L116.246 436.205C117.006 436.263 117.759 436.306 118.504 436.328C118.968 436.328 119.431 436.372 119.909 436.386C120.271 436.386 120.633 436.386 121.009 436.386C121.386 436.386 121.921 436.386 122.377 436.386C123 436.386 123.623 436.386 124.238 436.386H125.071C125.693 436.386 126.316 436.386 126.931 436.328H126.975C127.402 436.328 127.836 436.328 128.27 436.27C128.391 436.277 128.512 436.277 128.632 436.27C128.994 436.27 129.356 436.27 129.704 436.219H129.957L132.383 436.031C133.179 435.959 133.982 435.865 134.793 435.778L136.444 435.582C143.159 434.641 149.8 433.229 156.317 431.355C170.955 427.271 185.275 421.559 199.906 417.375C218.823 411.981 239.723 409.332 258.003 415.927V348.078H101.035ZM257.967 133.338V0.00724656C240.786 -0.1789 223.651 1.83066 206.979 5.98712C167.241 15.9705 131.586 37.624 101.035 65.2791V133.331H108.912V136.422H101.035V241.743H257.967V136.429H141.251V133.338H257.967ZM459.538 88.3009C449.707 87.9534 439.933 84.8404 431.094 80.0333C414.19 70.8391 400.688 56.6423 385.6 44.6608C354.253 19.7061 315.377 4.6478 275.494 0.912191V133.338H499.522L500.08 132.752L459.538 88.3009ZM479.946 84.6811L501.585 108.427V78.4551C494.339 79.3528 487.99 81.4885 479.975 84.6521L479.946 84.6811ZM501.585 455.441V348.078H455.477C455.354 347.622 455.231 347.158 455.086 346.695C455.223 347.158 455.339 347.622 455.469 348.078H275.523V425.722C277.232 426.989 278.918 428.321 280.591 429.675C282.393 431.123 284.174 432.65 285.962 434.149L287.765 435.64C288.627 436.364 289.495 437.088 290.371 437.769C292.109 439.178 293.863 440.568 295.635 441.939C296.51 442.663 297.408 443.314 298.299 443.995C312.435 454.803 327.348 464.557 342.916 473.177C346.406 475.108 349.926 476.993 353.479 478.832C355.846 480.041 358.228 481.242 360.617 482.408C364.208 484.16 367.827 485.849 371.476 487.476C405.116 502.576 440.687 512.938 477.174 518.265C485.277 519.462 493.412 520.403 501.578 521.089V455.433H502.302L501.585 455.441ZM275.523 136.429V241.743H501.614V136.429H275.523ZM275.523 244.835V344.987H501.614V244.835H275.523ZM519.163 78.3248V111.757L546.782 81.4523C537.631 79.9754 528.425 78.9208 519.163 78.2886V78.3248ZM519.163 244.871V344.987H739.065V244.835L519.163 244.871ZM738.261 463.39L739.036 348.078H519.163V522.24C533.327 522.835 547.513 522.666 561.659 521.733V521.733H561.905C568.662 521.308 575.388 520.691 582.082 519.88H582.234C617.947 515.723 652.868 506.406 685.905 492.217M781.467 261.326C780.641 259.379 779.78 257.446 778.904 255.535C777.268 251.915 775.537 248.396 773.757 244.878H756.599V344.987H799.978C799.957 316.636 792.782 287.678 781.488 261.29L781.467 261.326ZM756.599 348.114V447.296C768.819 435.582 779.143 422.182 786.578 406.863C795.519 388.417 799.609 368.443 799.942 348.1L756.599 348.114ZM756.599 215.688V241.751H772.149C767.445 232.779 762.261 224.067 756.621 215.652L756.599 215.688ZM607.464 97.9729C606.32 97.5386 605.176 97.0969 604.025 96.6698C591.885 92.1866 579.479 88.4583 566.879 85.5064L524.614 131.89L523.804 132.752L524.347 133.345H674.77C653.82 118.925 631.235 107.039 607.486 97.9367L607.464 97.9729ZM679.179 136.466H522.247L519.163 139.289V241.743H546.196H546.239H739.094V192.116C721.648 171.017 701.512 152.295 679.201 136.429L679.179 136.466Z" fill="#AF3A10"/>
<path opacity="0.1" d="M83.4938 189.553V241.743H10.2512C10.2512 241.439 10.3019 241.128 10.3236 240.824C10.3888 239.991 10.4539 239.159 10.5263 238.333C10.606 237.363 10.6928 236.386 10.7869 235.438C10.8811 234.489 10.9824 233.331 11.091 232.281C11.1996 231.231 11.301 230.167 11.424 229.117C11.5471 228.068 11.6557 227.018 11.786 225.976C11.9163 224.933 12.0322 223.876 12.1697 222.834C12.2783 221.965 12.3941 221.103 12.51 220.235C12.6765 219.011 12.8502 217.78 13.0384 216.564C13.0384 216.383 13.0891 216.195 13.1181 216.021C14.4394 207.118 16.2399 198.292 18.5116 189.582L83.4938 189.553Z" fill="#AF3A10"/>
<path opacity="0.1" d="M10.0195 244.842H83.4938V344.987H15.3985C15.2175 346.015 15.0438 347.05 14.8556 348.085H83.4938V428.85C83.3707 428.813 83.2621 428.77 83.1463 428.727C81.2061 427.959 79.2804 427.148 77.3547 426.28L76.1239 425.722C74.1934 424.81 72.2628 423.845 70.3323 422.826C69.659 422.472 68.9857 422.102 68.3197 421.726C57.6021 415.722 47.8658 408.115 39.4483 399.167C39.2022 398.929 38.9705 398.675 38.7244 398.443C37.5516 397.169 36.4005 395.881 35.2856 394.563L34.0549 393.115C32.7373 391.501 31.4631 389.843 30.2251 388.163C30.0442 387.917 29.8704 387.671 29.6822 387.439C24.6474 380.458 20.467 372.9 17.2301 364.924C17.1288 364.685 17.0419 364.425 16.9478 364.2C15.9536 361.642 15.0728 359.06 14.3054 356.454C13.9723 355.361 13.6538 354.282 13.3787 353.146C13.2773 352.813 13.1905 352.487 13.1108 352.161C8.99877 336.111 8.51372 319.438 8.51372 302.881C8.51372 300.948 8.51372 299.008 8.51372 297.09C8.51372 290.393 8.59335 283.653 8.70919 276.92C8.70919 275.176 8.78158 273.438 8.81778 271.686C8.91913 267.241 9.06392 262.796 9.25215 258.351C9.29559 257.113 9.35351 255.882 9.41866 254.651C9.41866 253.942 9.45486 253.232 9.52726 252.523C9.70101 249.946 9.8458 247.39 10.0195 244.842Z" fill="#AF3A10"/>
<path opacity="0.1" d="M156.28 151.509V241.743H101.035V151.509H108.912V120.959H141.244V151.509H156.28Z" fill="#AF3A10"/>
<path opacity="0.1" d="M156.28 244.835H101.042V344.979H156.28V244.835Z" fill="#AF3A10"/>
<path opacity="0.1" d="M101.035 348.085H156.28V431.34C149.764 433.213 143.123 434.623 136.408 435.561L134.757 435.763C133.946 435.858 133.143 435.937 132.346 436.017C131.55 436.096 130.725 436.154 129.921 436.205H129.668C129.32 436.205 128.944 436.248 128.603 436.256H128.234C127.8 436.256 127.366 436.299 126.931 436.314C126.316 436.35 125.7 436.357 125.071 436.364C124.803 436.364 124.549 436.364 124.281 436.364C123.659 436.364 123.043 436.364 122.421 436.364H121.053C120.683 436.364 120.329 436.364 119.945 436.364L118.548 436.314C117.824 436.314 117.042 436.234 116.289 436.183L114.899 436.082L113.169 435.923C111.952 435.814 110.743 435.677 109.549 435.51L108.101 435.307L107.377 435.206C106.168 435.018 104.974 434.815 103.757 434.583C102.867 434.431 101.984 434.243 101.086 434.062L101.035 348.085Z" fill="#AF3A10"/>
<path opacity="0.1" d="M501.614 140.853H456.063V241.736H501.614V140.853Z" fill="#AF3A10"/>
<path opacity="0.1" d="M501.622 244.835V344.987H275.523V301.788H395.953V327.271H456.063V244.835H501.622Z" fill="#AF3A10"/>
<path opacity="0.1" d="M502.338 455.462H501.614V521.161C493.458 520.471 485.325 519.532 477.217 518.345C440.713 513.001 405.126 502.617 371.476 487.49C361.761 483.117 352.243 478.344 342.923 473.17C327.356 464.546 312.441 454.792 298.299 443.988C294.747 441.265 291.24 438.481 287.78 435.633C285.383 433.657 283.002 431.63 280.591 429.66C278.918 428.307 277.232 426.975 275.523 425.7V348.085H455.462C455.339 347.622 455.216 347.158 455.086 346.702C455.223 347.158 455.354 347.622 455.477 348.085H501.614V455.419C501.861 455.426 502.099 455.448 502.338 455.462Z" fill="#AF3A10"/>
<path opacity="0.1" d="M620.416 133.338H590.733V124.115H604.04V96.6408C605.193 97.0607 606.342 97.4927 607.486 97.9367V124.115H620.416V133.338Z" fill="#AF3A10"/>
<path opacity="0.1" d="M691.928 241.743H546.21C546.21 241.743 546.21 241.743 546.261 241.779L546.196 241.743H519.163V140.86H526.823V215.427H561.826V171.266H590.741V136.437H620.423V171.295H649.338V215.456H691.928V241.743Z" fill="#AF3A10"/>
<path opacity="0.1" d="M519.163 244.835V344.987H691.928V244.835H519.163ZM738.826 462.876L739.065 383.602H691.928V348.129H519.163V522.24C533.327 522.835 547.513 522.666 561.659 521.733V521.733H561.905C568.662 521.308 575.388 520.691 582.082 519.88H582.234C617.947 515.723 652.868 506.406 685.905 492.217" fill="#AF3A10"/>
<path opacity="0.1" d="M759.668 348.085H799.971C799.616 368.421 795.533 388.395 786.6 406.841C779.165 422.168 768.834 435.568 756.628 447.274V383.566H759.668V348.085Z" fill="#AF3A10"/>
<path opacity="0.1" d="M799.993 344.987H759.668V261.29H781.488C792.782 287.678 799.957 316.636 799.993 344.987Z" fill="#AF3A10"/>
<path opacity="0.1" d="M501.622 168.899H477.217V200.528H501.622V168.899Z" fill="#AF3A10"/>
<path opacity="0.1" d="M501.622 234.46H477.217V241.743H501.622V234.46Z" fill="#AF3A10"/>
<path opacity="0.1" d="M501.622 244.835H477.217V266.083H501.622V244.835Z" fill="#AF3A10"/>
<path opacity="0.1" d="M501.622 300.022H477.217V331.651H501.622V300.022Z" fill="#AF3A10"/>
<path opacity="0.1" d="M501.622 365.583H477.217V397.213H501.622V365.583Z" fill="#AF3A10"/>
<path opacity="0.1" d="M501.614 455.419C501.861 455.419 502.099 455.419 502.338 455.462H501.614V462.81H477.217V431.145H501.614V455.419Z" fill="#AF3A10"/>
<path opacity="0.1" d="M501.614 496.692V521.125C493.458 520.435 485.325 519.496 477.217 518.309V496.692H501.614Z" fill="#AF3A10"/>
<path opacity="0.1" d="M380.113 342.663H275.523V344.987H380.113V342.663Z" fill="#AF3A10"/>
<path opacity="0.1" d="M380.113 348.078H275.523V356.983H380.113V348.078Z" fill="#AF3A10"/>
<path opacity="0.1" d="M380.113 386.172H275.523V400.492H380.113V386.172Z" fill="#AF3A10"/>
<path opacity="0.1" d="M380.106 429.682V444.002H298.299C294.746 441.29 291.238 438.505 287.772 435.648C285.376 433.671 283.002 431.644 280.583 429.682H380.106Z" fill="#AF3A10"/>
<path opacity="0.1" d="M380.106 473.185V487.49H371.469C361.763 483.113 352.248 478.337 342.923 473.163L380.106 473.185Z" fill="#AF3A10"/>
<path opacity="0.1" d="M582.256 254.543H561.667V275.132H582.256V254.543Z" fill="#AF3A10"/>
<path opacity="0.1" d="M136.458 158.611H115.869V179.201H136.458V158.611Z" fill="#AF3A10"/>
<path opacity="0.1" d="M136.458 206.436H115.869V227.025H136.458V206.436Z" fill="#AF3A10"/>
<path opacity="0.1" d="M136.458 254.26H115.869V274.85H136.458V254.26Z" fill="#AF3A10"/>
<path opacity="0.1" d="M136.458 302.078H115.869V322.667H136.458V302.078Z" fill="#AF3A10"/>
<path opacity="0.1" d="M136.458 349.902H115.869V370.492H136.458V349.902Z" fill="#AF3A10"/>
<path opacity="0.1" d="M136.458 397.727H115.869V418.316H136.458V397.727Z" fill="#AF3A10"/>
<path opacity="0.1" d="M660.856 254.543H640.266V275.132H660.856V254.543Z" fill="#AF3A10"/>
<path opacity="0.1" d="M582.256 305.328H561.667V325.918H582.256V305.328Z" fill="#AF3A10"/>
<path opacity="0.1" d="M660.856 305.328H640.266V325.918H660.856V305.328Z" fill="#AF3A10"/>
<path opacity="0.1" d="M582.256 356.107H561.667V376.696H582.256V356.107Z" fill="#AF3A10"/>
<path opacity="0.1" d="M660.856 356.107H640.266V376.696H660.856V356.107Z" fill="#AF3A10"/>
<path opacity="0.1" d="M582.256 406.892H561.667V427.481H582.256V406.892Z" fill="#AF3A10"/>
<path opacity="0.1" d="M660.856 406.892H640.266V427.481H660.856V406.892Z" fill="#AF3A10"/>
<path opacity="0.1" d="M582.256 457.678H561.667V478.267H582.256V457.678Z" fill="#AF3A10"/>
<path opacity="0.1" d="M660.856 457.678H640.266V478.267H660.856V457.678Z" fill="#AF3A10"/>
<path opacity="0.1" d="M561.667 521.733V508.456H582.249V519.844L561.667 521.733Z" fill="#AF3A10"/>
<path opacity="0.1" d="M13.0312 216.007V227.785H83.4938V216.007H13.0312ZM20.0536 227.047H14.3054V216.731H20.097L20.0536 227.047ZM27.0687 227.047H21.2771V216.731H27.0687V227.047ZM34.0694 227.047H28.2777V216.731H34.0694V227.047ZM41.0845 227.047H35.3001V216.731H41.0917L41.0845 227.047ZM48.0924 227.047H42.3007V216.731H48.0924V227.047ZM55.1075 227.047H49.3159V216.731H55.1075V227.047ZM62.1226 227.047H56.331V216.731H62.1226V227.047ZM69.1305 227.047H63.3389V216.731H69.1305V227.047ZM76.1384 227.047H70.3468V216.731H76.1384V227.047ZM83.1463 227.047H77.3547V216.731H83.1463V227.047Z" fill="#AF3A10"/>
<path opacity="0.1" d="M13.0312 250.279V262.057H83.4938V250.279H13.0312ZM20.0536 261.312H14.3054V251.024H20.097L20.0536 261.312ZM27.0687 261.312H21.2771V251.024H27.0687V261.312ZM34.0694 261.312H28.2777V251.024H34.0694V261.312ZM41.0845 261.312H35.3001V251.024H41.0917L41.0845 261.312ZM48.0924 261.312H42.3007V251.024H48.0924V261.312ZM55.1075 261.312H49.3159V251.024H55.1075V261.312ZM62.1226 261.312H56.331V251.024H62.1226V261.312ZM69.1305 261.312H63.3389V251.024H69.1305V261.312ZM76.1384 261.312H70.3468V251.024H76.1384V261.312ZM83.1463 261.312H77.3547V251.024H83.1463V261.312Z" fill="#AF3A10"/>
<path opacity="0.1" d="M13.0312 284.565V296.366H83.4938V284.565H13.0312ZM20.0536 295.598H14.3054V285.304H20.097L20.0536 295.598ZM27.0687 295.598H21.2771V285.304H27.0687V295.598ZM34.0694 295.598H28.2777V285.304H34.0694V295.598ZM41.0845 295.598H35.3001V285.304H41.0917L41.0845 295.598ZM48.0924 295.598H42.3007V285.304H48.0924V295.598ZM55.1075 295.598H49.3159V285.304H55.1075V295.598ZM62.1226 295.598H56.331V285.304H62.1226V295.598ZM69.1305 295.598H63.3389V285.304H69.1305V295.598ZM76.1384 295.598H70.3468V285.304H76.1384V295.598ZM83.1463 295.598H77.3547V285.304H83.1463V295.598Z" fill="#AF3A10"/>
<path opacity="0.1" d="M13.0312 318.852V330.616H83.4938V318.852H13.0312ZM20.0536 329.885H14.3054V319.583H20.097L20.0536 329.885ZM27.0687 329.885H21.2771V319.583H27.0687V329.885ZM34.0694 329.885H28.2777V319.583H34.0694V329.885ZM41.0845 329.885H35.3001V319.583H41.0917L41.0845 329.885ZM48.0924 329.885H42.3007V319.583H48.0924V329.885ZM55.1075 329.885H49.3159V319.583H55.1075V329.885ZM62.1226 329.885H56.331V319.583H62.1226V329.885ZM69.1305 329.885H63.3389V319.583H69.1305V329.885ZM76.1384 329.885H70.3468V319.583H76.1384V329.885ZM83.1463 329.885H77.3547V319.583H83.1463V329.885Z" fill="#AF3A10"/>
<path opacity="0.1" d="M13.3353 353.131C13.6176 354.239 13.9361 355.346 14.2692 356.44V353.87H20.0608V364.164H16.9623C17.0564 364.403 17.1505 364.664 17.2446 364.888H83.4938V353.131H13.3353ZM27.0904 364.164H21.2988V353.87H27.0904V364.164ZM34.0911 364.164H28.2994V353.87H34.0911V364.164ZM41.1062 364.164H35.3001V353.87H41.0917L41.1062 364.164ZM48.1141 364.164H42.3224V353.87H48.1141V364.164ZM55.1292 364.164H49.3376V353.87H55.1292V364.164ZM62.1444 364.164H56.3527V353.87H62.1444V364.164ZM69.1522 364.164H63.3606V353.87H69.1522V364.164ZM76.1601 364.164H70.3685V353.87H76.1601V364.164ZM83.168 364.164H77.3764V353.87H83.168V364.164Z" fill="#AF3A10"/>
<path opacity="0.1" d="M29.6967 387.418C29.8776 387.649 30.0514 387.91 30.2396 388.142H34.0693V393.086C34.482 393.578 34.8874 394.071 35.3073 394.534V388.113H41.099V398.443H38.7533C38.985 398.682 39.2094 398.936 39.4773 399.167H83.5155V387.418H29.6967ZM48.0924 398.443H42.3007V388.156H48.0924V398.443ZM55.1075 398.443H49.3159V388.156H55.1075V398.443ZM62.1226 398.443H56.331V388.156H62.1226V398.443ZM69.1305 398.443H63.3389V388.156H69.1305V398.443ZM76.1384 398.443H70.3468V388.156H76.1384V398.443ZM83.1463 398.443H77.3547V388.156H83.1463V398.443Z" fill="#AF3A10"/>
<path opacity="0.1" d="M68.3486 421.697C69.0074 422.073 69.6807 422.421 70.3612 422.797V422.435H76.1529V425.693L77.3836 426.265V422.435H83.1753V428.698C83.2863 428.753 83.4028 428.796 83.5227 428.828V421.697H68.3486Z" fill="#AF3A10"/>
<path opacity="0.1" d="M546.21 241.743H546.254H546.21ZM501.614 455.412H502.338H501.614ZM455.086 346.695C455.223 347.158 455.339 347.622 455.469 348.078C455.354 347.622 455.231 347.158 455.086 346.695ZM546.21 241.722H546.254H546.21ZM108.941 133.316V136.408H141.28V133.316H108.941ZM501.614 455.412H502.338H501.614ZM455.086 346.695C455.223 347.158 455.339 347.622 455.469 348.078C455.354 347.622 455.231 347.158 455.086 346.695ZM546.21 241.722H546.254H546.21ZM501.614 455.39H502.338H501.614ZM455.086 346.695C455.223 347.158 455.339 347.622 455.469 348.078C455.354 347.622 455.231 347.158 455.086 346.695Z" fill="#AF3A10"/>
<path d="M334.178 274.864C334.178 274.864 331.326 274.466 331.326 270.311C331.326 266.155 329.284 258.394 329.284 258.394C329.284 258.358 327.518 244.878 325.078 242.735C322.638 240.592 319.503 228.01 319.503 228.01C319.503 228.01 318.968 221.183 317.874 219.713C316.781 218.244 315.304 214.646 313.125 209.513C310.946 204.38 301.861 200.825 301.861 200.825C301.861 200.825 285.434 191.298 280.779 188.192C280.356 187.937 279.96 187.639 279.599 187.302C278.788 186.238 275.255 186.216 275.255 186.216C274.886 183.885 274.531 181.206 274.415 178.781C274.415 178.52 274.415 178.26 274.379 177.999C279.57 174.931 283.48 170.093 285.391 164.374C285.477 164.099 285.55 163.809 285.629 163.534C285.94 163.432 286.227 163.266 286.47 163.046C286.713 162.827 286.908 162.559 287.041 162.26C287.461 161.326 287.468 160.233 287.99 159.364C288.598 158.336 289.756 157.786 290.668 157.012C292.97 155.057 293.564 151.763 293.455 148.766C293.383 146.34 292.992 143.893 293.144 141.483L293.188 140.875C293.231 140.513 293.282 140.151 293.347 139.803C293.702 138.008 294.476 136.314 294.911 134.533C295.345 132.752 295.388 130.746 294.375 129.212C292.891 126.96 289.799 126.511 287.085 126.28C284.008 126.019 281.257 126.359 279.288 123.804C278.366 122.468 277.329 121.216 276.189 120.061C275.784 119.684 271.845 117.281 271.845 117.122C268.002 115.341 263.645 115.007 259.574 116.18C257.533 116.774 255.607 117.744 253.537 118.229C249.07 119.286 243.93 118.142 240.136 120.698C238.022 122.146 236.755 124.448 235.568 126.692C234.603 128.541 233.623 130.387 232.629 132.23C231.029 135.264 229.4 138.348 228.727 141.707C228.585 142.438 228.498 143.179 228.466 143.922V143.959C228.466 144.226 228.466 144.494 228.466 144.762V145.102C228.466 145.356 228.466 145.602 228.509 145.826C228.553 146.051 228.546 146.123 228.567 146.275C228.589 146.427 228.625 146.768 228.669 146.999C228.712 147.231 228.799 147.636 228.886 147.955C228.922 148.092 228.973 148.223 229.016 148.353C229.089 148.599 229.175 148.838 229.27 149.077C229.32 149.2 229.371 149.33 229.429 149.453C229.537 149.707 229.668 149.953 229.798 150.177C229.856 150.279 229.899 150.373 229.957 150.467C230.159 150.804 230.382 151.128 230.623 151.437C232.173 153.37 234.453 154.601 236.14 156.411C236.14 156.483 236.14 156.555 236.14 156.621C236.14 156.823 236.14 157.019 236.14 157.221C236.229 161.258 237.304 165.211 239.269 168.738C241.235 172.264 244.033 175.257 247.419 177.456C247.419 177.731 247.455 178.013 247.47 178.289C247.611 180.438 247.584 182.594 247.39 184.739C247.095 184.392 246.726 184.115 246.31 183.93C245.894 183.744 245.442 183.655 244.987 183.668C244.676 183.652 244.364 183.679 244.06 183.747L243.995 183.697V183.762C242.402 184.153 240.44 185.81 238.565 190.523C238.565 190.523 232.86 196.952 228.517 196.684C224.173 196.416 213.176 203.374 213.176 203.374C213.176 203.374 202.447 210.338 200.145 217.433C198.858 221.456 197.315 225.393 195.526 229.219L182.263 256.548L179.816 278.231C179.816 278.231 181.17 287.874 180.902 289.343C180.634 290.813 186.469 304.069 186.469 304.069C186.469 304.069 205.748 337.943 213.625 339.68L214.19 339.282C214.527 339.458 214.884 339.592 215.254 339.68L216.875 338.536C216.973 339.811 216.932 341.093 216.752 342.359C215.666 345.703 217.158 367.531 219.055 371.809C220.951 376.088 220.278 432.187 220.278 432.187L220.01 437.139C220.01 437.139 220.01 437.298 220.075 437.573L220.01 438.746L220.206 438.847C220.409 440.418 220.342 442.012 220.01 443.56C219.33 445.732 219.055 451.871 219.055 451.871C219.055 451.871 213.632 486.534 216.202 493.499C218.772 500.463 220.959 508.094 220.959 508.094C220.959 508.094 223.673 516.781 221.089 518.265C218.504 519.75 211.156 522.24 212.669 525.86C214.045 529.204 219.264 538.167 220.039 539.477L219.974 540.165L218.91 551.698C219.082 553.22 219.495 554.706 220.133 556.099C221.299 558.611 223.565 561.218 227.872 560.935C228.596 560.885 229.436 560.798 230.247 560.689C238.131 559.632 247.839 556.114 247.839 556.114C247.335 555.794 246.873 555.412 246.463 554.977V554.977C246.076 554.602 245.769 554.152 245.561 553.654C245.353 553.156 245.249 552.621 245.254 552.081C245.37 549.982 241.439 539.977 240.462 537.515C240.31 537.161 240.23 536.958 240.23 536.958C240.23 536.958 249.193 527.59 247.701 519.286C247.701 519.286 237.783 513.495 241.048 510.316C244.313 507.138 250.148 498.009 250.148 498.009C250.148 498.009 250.416 463.875 250.148 458.778C249.869 455.241 250.037 451.682 250.648 448.186C250.757 447.658 250.887 447.144 251.024 446.637C255.54 447.311 260.098 447.657 264.664 447.672C266.329 447.672 268.023 447.672 269.731 447.571C269.731 448.054 269.753 448.575 269.797 449.135C270.173 457.591 270.875 472.417 271.447 477.927C272.258 485.825 276.739 507.109 276.739 507.109C276.739 507.109 268.189 512.597 278.231 526.12C278.231 526.12 278.231 531.021 277.565 531.731C276.854 534.05 276.281 536.41 275.849 538.797C275.429 541.345 275.255 543.922 275.936 545.262C277.565 548.462 287.338 548.201 287.338 548.201L287.577 548.158C289.422 547.967 291.287 548.144 293.063 548.68C294.838 549.216 296.49 550.099 297.922 551.278C301.636 554.26 315.732 552.95 323.362 552.002C326.352 551.625 328.35 551.278 328.35 551.278C328.447 550.939 328.481 550.586 328.451 550.235C328.372 548.36 326.902 544.248 316.941 540.578C316.941 540.578 307.573 534.279 307.703 528.792H307.507H306.421C307.211 528.748 307.717 528.792 307.717 528.792C307.717 528.792 304.047 515.399 305.545 514.313C307.044 513.227 302.556 498.386 302.556 498.386C302.556 498.386 299.986 473.481 299.848 471.737C299.854 470.24 300.081 468.751 300.521 467.321L299.848 453.667C299.848 453.667 299.718 449.128 299.848 447.651C299.826 446.369 299.722 445.09 299.537 443.821C299.471 443.314 299.406 442.786 299.334 442.265C302.845 441.374 305.126 440.549 305.126 440.549L304.72 393.021C307.703 387.229 308.253 374.524 308.239 365.511C308.239 359.719 307.978 355.433 307.978 355.433L312.054 348.78C312.054 348.78 312.995 340.817 311.504 339.072C310.845 338.283 311.142 337.465 311.685 336.791C311.967 336.568 312.264 336.365 312.575 336.183C312.575 336.183 312.532 336.118 312.481 336.024C312.766 335.786 313.068 335.571 313.386 335.38C313.386 335.38 311.938 333.135 313.234 332.187C314.45 333.012 315.536 333.635 316.361 334.142C316.303 334.67 316.246 334.974 316.246 334.974L316.593 334.25C317.389 334.699 317.874 334.974 317.874 334.974C317.874 334.974 324.26 322.254 324.122 320.379C323.985 318.504 328.466 310.606 328.466 310.606C328.466 310.606 329.009 306.458 331.456 304.72C333.903 302.983 333.353 290.393 333.353 290.393C333.353 290.393 334.033 283.834 335.662 281.155C337.291 278.477 334.178 274.864 334.178 274.864ZM212.003 269.283L212.126 272.316C211.402 271.15 210.881 270.311 210.881 270.311L212.003 269.283Z" fill="url(#paint0_linear_70_81)"/>
<path d="M318.222 329.479L316.658 336.14C316.658 336.14 304.134 329.747 301.875 321.625C299.616 313.502 305.654 310.418 305.654 310.418L317.324 315.362L318.222 329.479Z" fill="white"/>
<path opacity="0.1" d="M318.222 329.479L316.658 336.14C316.658 336.14 304.134 329.747 301.875 321.625C299.616 313.502 305.654 310.418 305.654 310.418L317.324 315.362L318.222 329.479Z" fill="black"/>
<path d="M247.933 556.157C247.933 556.157 236.35 560.414 228.386 560.95C224.158 561.232 221.936 558.64 220.792 556.143C220.167 554.754 219.764 553.276 219.597 551.763L220.633 540.288L221.183 534.178L238.102 529.784L240.498 537.11L240.722 537.667C241.685 540.114 245.544 550.069 245.428 552.147C245.423 552.679 245.526 553.206 245.73 553.697C245.934 554.189 246.235 554.634 246.616 555.006C247.004 555.444 247.447 555.831 247.933 556.157V556.157Z" fill="white"/>
<path d="M327.054 550.322C327.083 550.671 327.049 551.021 326.953 551.357C326.953 551.357 302.179 555.491 297.111 551.357C295.683 550.15 294.017 549.254 292.222 548.728C290.427 548.202 288.541 548.057 286.686 548.302C286.686 548.302 277.101 548.563 275.501 545.406C274.835 544.082 275.009 541.512 275.422 538.978C275.843 536.604 276.404 534.256 277.101 531.948L277.485 531.644L279.765 529.813L306.465 529.023H306.668C306.537 534.482 315.732 540.744 315.732 540.744C325.498 544.364 326.938 548.454 327.054 550.322Z" fill="white"/>
<path opacity="0.1" d="M327.054 550.322C327.08 550.671 327.043 551.021 326.946 551.357C326.946 551.357 302.179 555.491 297.111 551.357C295.683 550.151 294.019 549.256 292.225 548.73C290.431 548.203 288.547 548.058 286.694 548.302C286.694 548.302 277.101 548.563 275.509 545.407C274.843 544.074 275.009 541.512 275.422 538.978C279.114 539.347 284.942 540.266 287.229 542.46C290.69 545.797 296.554 549.128 300.152 549.388C302.968 549.569 319.815 550.105 327.054 550.322Z" fill="black"/>
<path opacity="0.1" d="M247.933 556.157C247.933 556.157 236.35 560.414 228.386 560.95C224.158 561.232 221.936 558.64 220.799 556.136C223.746 557.127 227.836 558.17 229.986 557.214C232.535 556.085 241.57 555.354 246.637 555.042C247.023 555.465 247.458 555.839 247.933 556.157V556.157Z" fill="black"/>
<path d="M265.12 213.111C255.564 209.397 243.271 197.126 246.34 191.392C247.022 189.945 247.427 188.384 247.535 186.788C247.732 184.621 247.761 182.443 247.622 180.272C247.407 176.717 246.979 173.178 246.34 169.673C246.34 169.673 276.175 170.347 274.437 174.741C273.93 176.03 273.851 178.267 273.988 180.772C274.126 183.277 274.488 186.107 274.864 188.504C275.385 191.79 275.907 194.295 275.907 194.295C275.907 194.295 274.082 196.851 273.011 196.988C271.939 197.126 278.832 218.403 265.12 213.111Z" fill="#CF6F80"/>
<path opacity="0.1" d="M240.701 537.667L240.476 537.914C231.557 527.127 220.77 540.57 220.77 540.57L220.611 540.288L221.161 534.178L238.08 529.784L240.476 537.11L240.701 537.667Z" fill="black"/>
<path opacity="0.1" d="M306.675 529.784C306.675 529.784 300.159 529.646 296.684 532.716C293.209 535.785 276.414 533.382 277.137 532.716C277.352 532.385 277.481 532.007 277.514 531.615L279.794 529.784L306.494 528.994C306.595 529.479 306.675 529.784 306.675 529.784Z" fill="black"/>
<path d="M251.799 445.073C251.314 446.273 250.945 447.517 250.699 448.787C250.095 452.267 249.927 455.807 250.199 459.328C250.467 464.396 250.199 498.357 250.199 498.357C250.199 498.357 244.473 507.413 241.28 510.606C238.087 513.799 247.796 519.532 247.796 519.532C249.243 527.785 240.469 537.11 240.469 537.11C231.55 526.323 220.763 539.774 220.763 539.774C220.763 539.774 214.899 529.639 213.437 526.019C211.974 522.399 219.163 519.894 221.69 518.425C224.216 516.955 221.567 508.289 221.567 508.289C221.567 508.289 219.431 500.695 216.897 493.767C214.363 486.838 219.692 452.349 219.692 452.349C219.692 452.349 219.967 446.225 220.625 444.089C220.958 442.548 221.024 440.961 220.821 439.398C220.778 438.869 220.727 438.428 220.691 438.131C220.654 437.834 220.625 437.696 220.625 437.696L220.727 437.523L224.347 430.775C224.347 430.775 253.537 440.824 251.799 445.073Z" fill="#AF3A10"/>
<path d="M306.675 528.987C306.675 528.987 300.159 528.85 296.684 531.883C293.209 534.916 276.414 532.549 277.137 531.883C277.861 531.217 277.804 526.287 277.804 526.287C267.95 512.836 276.356 507.377 276.356 507.377C276.356 507.377 271.954 486.201 271.158 478.346C270.6 472.859 269.912 458.112 269.543 449.692C269.384 446.073 269.29 443.582 269.29 443.582L277.34 441.96L278.375 441.751L297.792 437.856C297.792 437.856 298.328 441.475 298.69 444.436C298.87 445.701 298.972 446.975 298.994 448.252C298.863 449.7 298.994 454.232 298.994 454.232L299.652 467.82C299.222 469.246 299 470.726 298.994 472.215C299.124 473.945 301.651 498.719 301.651 498.719C301.651 498.719 306.045 513.502 304.546 514.566C303.048 515.63 306.675 528.987 306.675 528.987Z" fill="#AF3A10"/>
<path opacity="0.1" d="M274.437 174.741C273.93 176.03 273.851 178.267 273.988 180.772C269.992 183.178 265.398 184.409 260.734 184.321C256.07 184.234 251.525 182.833 247.622 180.279C247.407 176.722 246.979 173.18 246.34 169.673C246.34 169.673 276.175 170.332 274.437 174.741Z" fill="black"/>
<path d="M285.97 158.742C285.975 161.351 285.565 163.944 284.753 166.423C282.94 171.978 279.22 176.714 274.253 179.792C269.285 182.87 263.39 184.094 257.608 183.245C251.825 182.397 246.529 179.532 242.655 175.157C238.781 170.782 236.579 165.178 236.437 159.335C236.437 159.133 236.437 158.944 236.437 158.742C236.38 155.453 236.98 152.186 238.199 149.132C239.419 146.077 241.234 143.296 243.54 140.951C245.846 138.605 248.595 136.743 251.629 135.471C254.662 134.199 257.918 133.545 261.207 133.545C264.496 133.545 267.752 134.199 270.785 135.471C273.818 136.743 276.568 138.605 278.874 140.951C281.179 143.296 282.995 146.077 284.214 149.132C285.434 152.186 286.033 155.453 285.977 158.742H285.97Z" fill="#CF6F80"/>
<path opacity="0.1" d="M265.12 213.111C255.564 209.397 243.271 197.126 246.34 191.392C247.022 189.945 247.427 188.384 247.535 186.788L260.617 197.539L268.711 204.177L274.864 188.511C275.385 191.798 275.907 194.302 275.907 194.302C275.907 194.302 274.082 196.858 273.011 196.996C271.939 197.133 278.832 218.403 265.12 213.111Z" fill="black"/>
<path d="M298.95 260.624L288.026 444.147L273.778 445.081L236.886 338.666L242.938 212.329L244.212 185.637L260.617 199.11L268.718 205.748L275.052 189.626L286.831 199.891L298.95 260.624Z" fill="#AF3A10"/>
<path opacity="0.1" d="M251.799 445.073C251.314 446.273 250.945 447.517 250.699 448.787C240.331 447.187 230.263 444.041 220.828 439.456L220.633 439.354L220.698 438.189L220.734 437.581L224.354 430.833C224.354 430.833 253.537 440.824 251.799 445.073Z" fill="black"/>
<path opacity="0.1" d="M277.507 448.816C274.856 449.267 272.183 449.572 269.5 449.729C269.34 446.109 269.246 443.618 269.246 443.618L277.297 441.997L277.507 448.816Z" fill="black"/>
<path opacity="0.1" d="M298.646 444.473C293.499 445.812 285.55 447.318 278.433 446.377L278.332 441.787L297.749 437.892C297.749 437.892 298.284 441.475 298.646 444.473Z" fill="black"/>
<path opacity="0.1" d="M278.303 447.216C248.621 452.284 221.436 437.754 221.436 437.754L221.697 432.831C221.697 432.831 222.37 377.022 220.502 372.743C218.635 368.464 217.179 346.768 218.236 343.437C219.293 340.107 214.378 290.169 214.378 290.169L213.581 269.898L184.435 258.09L197.466 230.927C199.226 227.119 200.74 223.202 201.998 219.199C204.264 212.148 214.783 205.22 214.783 205.22C214.783 205.22 225.57 198.299 229.834 198.559C234.098 198.82 239.687 192.435 239.687 192.435C243.814 181.916 247.549 186.679 247.549 186.679C247.549 187.179 247.549 186.679 247.347 188.236C245.899 199.783 270.759 236.27 271.114 236.915L273.481 294.585L275.878 367.567L278.303 447.216Z" fill="black"/>
<path d="M277.507 447.216C247.825 452.284 220.633 437.754 220.633 437.754L220.901 432.831C220.901 432.831 221.574 377.022 219.699 372.743C217.824 368.464 216.376 346.768 217.44 343.437C218.504 340.107 213.581 290.169 213.581 290.169L212.778 269.898L183.617 258.047L196.648 230.884C198.404 227.074 199.918 223.157 201.18 219.156C203.439 212.105 213.965 205.176 213.965 205.176C213.965 205.176 224.752 198.255 229.009 198.516C233.266 198.777 238.862 192.391 238.862 192.391C242.996 181.872 247.549 186.636 247.549 186.636C247.549 187.135 247.115 187.36 247.347 188.192C250.532 199.392 269.963 236.227 270.318 236.871L272.714 294.541L275.11 367.523L277.507 447.216Z" fill="white"/>
<path opacity="0.1" d="M269.507 238.514C266.314 237.182 249.403 217.874 249.403 217.874V213.48C248.787 212.032 245.131 212.915 242.163 213.929L243.437 187.237L244.885 188.438C248.056 199.631 269.138 237.87 269.507 238.514Z" fill="black"/>
<path d="M270.311 236.914C267.111 235.582 250.199 216.275 250.199 216.275V211.88C249.584 210.432 245.928 211.315 242.96 212.329L244.241 185.637L245.689 186.838C248.867 198.031 269.956 236.277 270.311 236.914Z" fill="white"/>
<path opacity="0.1" d="M221.436 333.208C221.835 333.208 242.076 331.079 242.076 331.079C242.076 331.079 254.333 355.18 253.529 361.044C252.726 366.908 251.271 372.099 246.34 371.179C241.41 370.26 219.807 371.903 219.807 371.903L221.436 333.208Z" fill="black"/>
<path d="M220.633 331.608C221.031 331.608 241.273 329.479 241.273 329.479C241.273 329.479 253.522 353.587 252.726 359.444C251.929 365.301 250.46 370.499 245.537 369.579C240.614 368.66 219.004 370.303 219.004 370.303L220.633 331.608Z" fill="white"/>
<path d="M235.886 320.292C235.886 320.292 254.463 330.276 254.861 333.324C255.26 336.372 245.406 331.992 243.278 331.463C241.877 331.126 240.451 330.903 239.014 330.797L224.817 331.181L235.886 320.292Z" fill="#CF6F80"/>
<path opacity="0.1" d="M264.323 239.76C265.403 239.76 266.278 238.885 266.278 237.805C266.278 236.725 265.403 235.85 264.323 235.85C263.244 235.85 262.369 236.725 262.369 237.805C262.369 238.885 263.244 239.76 264.323 239.76Z" fill="black"/>
<path d="M264.323 238.963C265.403 238.963 266.278 238.088 266.278 237.009C266.278 235.929 265.403 235.054 264.323 235.054C263.244 235.054 262.369 235.929 262.369 237.009C262.369 238.088 263.244 238.963 264.323 238.963Z" fill="#3F3D56"/>
<path opacity="0.1" d="M267.921 324.376C269.001 324.376 269.876 323.5 269.876 322.421C269.876 321.341 269.001 320.466 267.921 320.466C266.842 320.466 265.967 321.341 265.967 322.421C265.967 323.5 266.842 324.376 267.921 324.376Z" fill="black"/>
<path d="M267.921 323.572C269.001 323.572 269.876 322.697 269.876 321.617C269.876 320.538 269.001 319.663 267.921 319.663C266.842 319.663 265.967 320.538 265.967 321.617C265.967 322.697 266.842 323.572 267.921 323.572Z" fill="#3F3D56"/>
<path opacity="0.1" d="M266.271 282.068C267.35 282.068 268.226 281.192 268.226 280.113C268.226 279.033 267.35 278.158 266.271 278.158C265.191 278.158 264.316 279.033 264.316 280.113C264.316 281.192 265.191 282.068 266.271 282.068Z" fill="black"/>
<path d="M266.271 281.271C267.35 281.271 268.226 280.396 268.226 279.317C268.226 278.237 267.35 277.362 266.271 277.362C265.191 277.362 264.316 278.237 264.316 279.317C264.316 280.396 265.191 281.271 266.271 281.271Z" fill="#3F3D56"/>
<path d="M311.33 330.392C311.33 330.392 312.662 332.39 311.33 333.324C309.998 334.258 311.46 336.516 311.46 336.516C311.46 336.516 308.137 338.464 309.6 340.216C311.062 341.968 310.135 349.881 310.135 349.881L306.139 356.498C306.139 356.498 306.378 360.762 306.393 366.524C306.393 375.516 305.864 388.156 302.939 393.919L303.345 441.2C303.345 441.2 289.351 446.311 277.637 444.755L275.9 368.884C275.9 368.884 278.433 325.86 279.367 317.607C279.914 313.322 280.136 309.002 280.033 304.684C280.033 304.684 279.635 291.769 278.296 285.774C278.296 285.774 276.848 259.806 276.703 252.617C276.638 249.178 276.819 239.144 277.022 229.603C277.246 219.17 277.499 209.332 277.499 209.332L274.857 188.424C274.857 188.424 277.499 188.156 278.296 189.22C278.653 189.554 279.04 189.852 279.454 190.111V190.111C284.015 193.195 300.13 202.679 300.13 202.679C300.13 202.679 309.049 206.226 311.185 211.308C313.321 216.39 314.805 219.996 315.84 221.444C316.875 222.891 317.44 229.697 317.44 229.697C317.44 229.697 320.51 242.221 322.906 244.342C325.302 246.463 327.054 259.958 327.054 259.958L305.879 276.609C305.879 276.609 304.018 304.308 303.62 305.379C303.222 306.45 311.33 330.392 311.33 330.392Z" fill="white"/>
<path d="M312.134 330.392C312.134 330.392 313.458 332.39 312.134 333.324C310.809 334.258 312.257 336.516 312.257 336.516C312.257 336.516 308.955 338.485 310.403 340.237C311.851 341.989 310.939 349.902 310.939 349.902L306.943 356.519C306.943 356.519 307.182 360.783 307.203 366.546C307.203 375.538 306.675 388.178 303.75 393.941L304.148 441.222C304.148 441.222 290.132 446.333 278.433 444.777L276.703 368.906C276.703 368.906 279.237 325.881 280.171 317.628C280.718 313.344 280.938 309.024 280.83 304.706C280.83 304.706 280.431 291.79 279.099 285.796C279.099 285.796 277.651 259.828 277.499 252.639C277.434 249.2 277.623 239.166 277.818 229.624C278.042 219.192 278.296 209.354 278.296 209.354L274.806 188.163C274.806 188.163 278.296 188.163 279.099 189.242C279.453 189.579 279.841 189.878 280.258 190.132C284.819 193.217 300.941 202.7 300.941 202.7C300.941 202.7 309.853 206.248 311.989 211.33C314.124 216.412 315.608 220.017 316.651 221.465C317.693 222.913 318.244 229.718 318.244 229.718C318.244 229.718 321.313 242.243 323.71 244.364C326.106 246.485 327.836 259.951 327.836 259.951L306.66 276.602C306.66 276.602 304.8 304.3 304.394 305.372C303.989 306.443 312.134 330.392 312.134 330.392Z" fill="white"/>
<path opacity="0.1" d="M286.773 215.5L288.685 221.074L278.622 231.21C278.846 220.785 279.099 210.939 279.099 210.939L275.61 189.749C275.61 189.749 279.099 189.749 279.903 190.827C280.255 191.164 280.644 191.46 281.061 191.711L289.618 216.398L286.773 215.5Z" fill="black"/>
<path d="M285.97 213.9L287.888 219.474L277.825 229.61C278.05 219.178 278.303 209.339 278.303 209.339L274.806 188.149C274.806 188.149 278.303 188.149 279.099 189.228C279.455 189.563 279.843 189.861 280.258 190.118L288.822 214.798L285.97 213.9Z" fill="white"/>
<path opacity="0.1" d="M285.97 158.742C285.975 161.351 285.565 163.944 284.753 166.423C284.617 166.444 284.477 166.438 284.343 166.404C284.208 166.371 284.082 166.311 283.972 166.227C283.783 159.712 280.576 153.594 276.631 148.389C275.523 146.818 274.18 145.426 272.649 144.263C271.101 143.1 269.176 142.556 267.248 142.735C265.076 143.032 263.158 144.509 260.964 144.697C258.068 144.936 255.477 142.931 252.603 142.829C251.434 142.84 250.282 143.1 249.222 143.592C248.162 144.084 247.219 144.796 246.456 145.682C244.946 147.468 243.825 149.549 243.162 151.792C242.024 155.193 241.404 158.747 241.323 162.333C241.287 164.36 241.092 166.901 239.209 167.639C239.351 166.148 239.182 164.644 238.712 163.223C238.242 161.801 237.482 160.492 236.48 159.379L236.437 159.335C236.437 159.133 236.437 158.944 236.437 158.742C236.38 155.453 236.98 152.186 238.199 149.132C239.419 146.077 241.234 143.296 243.54 140.951C245.846 138.605 248.595 136.743 251.629 135.471C254.662 134.199 257.918 133.545 261.207 133.545C264.496 133.545 267.752 134.199 270.785 135.471C273.818 136.743 276.568 138.605 278.874 140.951C281.179 143.296 282.995 146.077 284.214 149.132C285.434 152.186 286.033 155.453 285.977 158.742H285.97Z" fill="black"/>
<path d="M271.462 119.409C267.7 117.64 263.421 117.305 259.43 118.468C257.424 119.062 255.535 120.025 253.5 120.51C249.157 121.559 244.089 120.423 240.361 122.964C238.29 124.412 237.045 126.699 235.886 128.922L232.991 134.439C231.412 137.457 229.82 140.527 229.161 143.85C228.502 147.173 228.9 150.894 231.007 153.565C232.542 155.513 234.808 156.736 236.473 158.568C237.47 159.682 238.227 160.99 238.696 162.41C239.164 163.831 239.334 165.332 239.195 166.821C241.085 166.097 241.265 163.549 241.309 161.522C241.39 157.936 242.009 154.382 243.148 150.981C243.809 148.737 244.93 146.656 246.442 144.871C247.205 143.986 248.148 143.275 249.208 142.783C250.268 142.291 251.42 142.03 252.588 142.018C255.484 142.12 258.083 144.118 260.95 143.879C263.122 143.698 265.047 142.214 267.234 141.924C269.162 141.742 271.088 142.287 272.634 143.452C274.165 144.613 275.506 146.005 276.609 147.578C280.562 152.784 283.769 158.887 283.957 165.417C284.775 166.018 285.955 165.236 286.361 164.309C286.766 163.382 286.781 162.296 287.295 161.413C287.888 160.392 289.025 159.849 289.915 159.082C292.174 157.135 292.739 153.855 292.652 150.88C292.565 147.904 291.986 144.885 292.55 141.96C292.891 140.165 293.658 138.485 294.078 136.712C294.498 134.938 294.549 132.947 293.557 131.42C292.109 129.175 289.061 128.734 286.404 128.524C283.385 128.263 280.685 128.596 278.759 126.055C277.855 124.729 276.838 123.484 275.719 122.334C275.335 121.958 271.462 119.569 271.462 119.409Z" fill="#512E4E"/>
<path opacity="0.1" d="M192.775 272.077L185.21 258.09L182.813 279.671C182.813 279.671 184.145 289.256 183.878 290.726C183.61 292.196 189.336 305.372 189.336 305.372C189.336 305.372 208.253 339.065 215.978 340.802L242.076 322.153L235.155 313.364C235.155 313.364 232.759 312.43 232.158 313.364C232.158 313.364 219.308 291.255 217.976 289.655C216.644 288.055 216.904 284.862 216.904 284.862C216.904 284.862 214.906 282.734 215.572 280.736C216.238 278.737 211.714 271.809 211.714 271.809L215.84 267.95L192.775 272.077Z" fill="black"/>
<path d="M185.608 256.497L183.61 258.09L181.213 279.671C181.213 279.671 182.545 289.256 182.278 290.726C182.01 292.196 187.743 305.372 187.743 305.372C187.743 305.372 206.653 339.065 214.378 340.802L240.484 322.153L233.555 313.364C233.555 313.364 231.159 312.43 230.558 313.364C230.558 313.364 217.708 291.255 216.376 289.655C215.044 288.055 215.312 284.862 215.312 284.862C215.312 284.862 213.314 282.734 213.98 280.736C214.646 278.737 210.114 271.809 210.114 271.809L214.24 267.95L185.608 256.497Z" fill="white"/>
<path opacity="0.1" d="M309.6 341.041C311.048 342.8 310.135 350.699 310.135 350.699L306.139 357.316C306.139 357.316 306.378 361.587 306.392 367.342L299.674 369.442C299.067 369.631 298.423 369.673 297.797 369.563C297.17 369.454 296.579 369.196 296.072 368.811C295.566 368.426 295.159 367.926 294.885 367.352C294.611 366.778 294.478 366.147 294.498 365.511L295.656 328.147L311.33 334.142C309.998 335.068 311.46 337.342 311.46 337.342C311.46 337.342 308.137 339.282 309.6 341.041Z" fill="black"/>
<path d="M310.403 340.237C311.851 341.997 310.939 349.902 310.939 349.902L306.943 356.519C306.943 356.519 307.182 360.783 307.203 366.546L300.362 368.682C299.767 368.866 299.137 368.907 298.524 368.799C297.911 368.691 297.332 368.438 296.836 368.061C296.341 367.684 295.942 367.194 295.674 366.632C295.406 366.071 295.275 365.453 295.294 364.83L296.46 327.351L312.141 333.345C310.801 334.272 312.264 336.538 312.264 336.538C312.264 336.538 308.955 338.485 310.403 340.237Z" fill="white"/>
<path d="M315.594 322.428C315.594 322.428 314.53 329.226 311.866 329.624C309.201 330.022 308.007 340.621 305.35 340.245C302.693 339.868 304.452 330.392 304.546 328.553C304.641 326.714 301.651 319.098 303.888 317.368C306.125 315.637 313.205 317.368 313.205 317.368L315.594 322.428Z" fill="#CF6F80"/>
<path opacity="0.1" d="M321.263 270.079L326.287 259.944C326.287 259.944 328.285 267.668 328.285 271.795C328.285 275.921 331.079 276.327 331.079 276.327C331.079 276.327 334.142 279.946 332.527 282.582C330.913 285.217 330.261 291.776 330.261 291.776C330.261 291.776 330.79 304.293 328.394 306.023C325.997 307.754 325.498 311.887 325.498 311.887C325.498 311.887 321.096 319.742 321.234 321.61C321.371 323.478 315.109 336.125 315.109 336.125C315.109 336.125 318.171 320.408 300.326 313.618C300.326 313.618 300.188 308.282 301.52 306.82C302.852 305.357 304.93 304.691 303.627 297.3C302.324 289.908 303.251 281.076 303.251 279.302C303.251 277.528 307.247 266.466 307.247 266.466L321.263 270.079Z" fill="black"/>
<path d="M323.434 258.496L327.822 259.944C327.822 259.944 329.827 267.668 329.827 271.795C329.827 275.921 332.621 276.327 332.621 276.327C332.621 276.327 335.684 279.946 334.069 282.582C332.455 285.217 331.811 291.776 331.811 291.776C331.811 291.776 332.339 304.293 329.943 306.023C327.546 307.754 327.011 311.887 327.011 311.887C327.011 311.887 322.616 319.742 322.754 321.61C322.891 323.478 316.622 336.125 316.622 336.125C316.622 336.125 319.692 320.408 301.839 313.618C301.839 313.618 301.708 308.282 303.041 306.82C304.373 305.357 306.45 304.691 305.147 297.3C303.844 289.908 304.771 281.076 304.771 279.302C304.771 277.528 308.767 266.466 308.767 266.466L323.434 258.496Z" fill="white"/>
<path opacity="0.1" d="M226.533 521.197C226.533 521.197 233.526 516.803 238.116 519.996C242.706 523.188 226.533 521.197 226.533 521.197Z" fill="black"/>
<path opacity="0.1" d="M280.873 507.609C280.873 507.609 287.063 506.812 292.261 512.409C297.459 518.005 280.873 507.609 280.873 507.609Z" fill="black"/>
<g opacity="0.1">
<path d="M289.93 157.497C289.039 158.264 287.895 158.814 287.302 159.835C286.795 160.711 286.781 161.79 286.375 162.731C285.97 163.672 284.79 164.439 283.972 163.846C283.783 157.33 280.569 151.213 276.623 146C275.52 144.427 274.18 143.035 272.649 141.874C271.099 140.709 269.171 140.164 267.241 140.346C265.069 140.643 263.158 142.12 260.964 142.301C258.068 142.547 255.469 140.542 252.595 140.44C251.427 140.452 250.275 140.713 249.217 141.206C248.158 141.699 247.217 142.413 246.456 143.3C244.945 145.082 243.823 147.161 243.162 149.403C242.025 152.804 241.405 156.358 241.323 159.944C241.28 161.963 241.092 164.483 239.224 165.236C239.267 165.77 239.267 166.308 239.224 166.843C241.106 166.119 241.294 163.571 241.338 161.543C241.419 157.958 242.038 154.404 243.177 151.003C243.837 148.759 244.959 146.678 246.471 144.892C247.233 144.008 248.174 143.297 249.233 142.805C250.291 142.313 251.443 142.052 252.61 142.04C255.506 142.141 258.112 144.14 260.979 143.901C263.151 143.72 265.076 142.236 267.255 141.946C269.185 141.764 271.114 142.309 272.663 143.474C274.194 144.635 275.535 146.027 276.638 147.6C280.583 152.805 283.798 158.908 283.986 165.438C284.804 166.039 285.984 165.257 286.39 164.331C286.795 163.404 286.81 162.318 287.316 161.435C287.91 160.414 289.054 159.871 289.944 159.104C292.203 157.156 292.768 153.877 292.681 150.901C292.681 150.807 292.681 150.713 292.681 150.626C292.543 153.203 291.855 155.831 289.93 157.497Z" fill="black"/>
<path d="M236.487 156.983C234.822 155.151 232.549 153.927 231.022 151.987C229.735 150.27 229.001 148.202 228.915 146.058C228.687 148.737 229.435 151.409 231.022 153.58C232.549 155.527 234.822 156.751 236.487 158.582C238.086 160.374 239.046 162.645 239.217 165.04C239.328 163.583 239.143 162.118 238.674 160.733C238.205 159.348 237.461 158.073 236.487 156.983V156.983Z" fill="black"/>
<path d="M294.093 135.126C293.665 136.9 292.905 138.587 292.558 140.375C292.352 141.57 292.277 142.784 292.333 143.995C292.358 143.305 292.433 142.618 292.558 141.939C292.905 140.143 293.665 138.464 294.093 136.69C294.341 135.712 294.422 134.698 294.331 133.693C294.286 134.176 294.207 134.655 294.093 135.126V135.126Z" fill="black"/>
</g>
<path opacity="0.1" d="M96.0906 550.633C135.05 550.633 166.633 545.561 166.633 539.304C166.633 533.046 135.05 527.974 96.0906 527.974C57.1312 527.974 25.5484 533.046 25.5484 539.304C25.5484 545.561 57.1312 550.633 96.0906 550.633Z" fill="#AF3A10"/>
<path d="M98.3638 322.262H93.8246V424.462H98.3638V322.262Z" fill="#535461"/>
<path d="M126.888 424.151L126.605 428.756L126.2 435.271L126.033 437.979L125.635 444.494L125.462 447.202L125.056 453.718L120.481 527.612C120.282 530.791 118.879 533.775 116.558 535.957C114.236 538.138 111.171 539.353 107.985 539.354H84.196C81.0112 539.353 77.9467 538.138 75.6264 535.956C73.3062 533.774 71.9049 530.79 71.7078 527.612L67.1541 453.667L66.7487 447.151L66.5822 444.444L66.1768 437.928L66.0103 435.22L65.6049 428.705L65.3153 424.101C65.265 423.214 65.3963 422.327 65.7011 421.494C66.006 420.66 66.4779 419.897 67.088 419.253C67.6981 418.608 68.4336 418.095 69.2491 417.745C70.0647 417.394 70.9433 417.214 71.8309 417.216H120.488C121.372 417.223 122.246 417.412 123.054 417.77C123.863 418.128 124.589 418.649 125.189 419.299C125.788 419.948 126.249 420.714 126.541 421.549C126.833 422.384 126.951 423.269 126.888 424.151V424.151Z" fill="#3F3D56"/>
<path d="M126.605 428.756L126.2 435.249H65.9813L65.5759 428.756H126.605Z" fill="#9D9CB5"/>
<path d="M126.033 437.957L125.635 444.458H66.5532L66.1478 437.957H126.033Z" fill="#9D9CB5"/>
<path d="M125.462 447.173L125.063 453.667H67.1252L66.7198 447.173H125.462Z" fill="#9D9CB5"/>
<path d="M58.6476 360.566C85.0793 379.693 96.1123 409.607 96.1123 409.607C96.1123 409.607 64.2583 408.514 37.8194 389.387C11.3806 370.26 0.369217 340.353 0.369217 340.353C0.369217 340.353 32.2088 341.439 58.6476 360.566Z" fill="#AF3A10"/>
<path d="M0.347504 340.353C0.347504 340.353 33.4178 358.706 44.0238 373.901C54.6297 389.097 96.1124 409.607 96.1124 409.607" stroke="#535461" stroke-width="2" stroke-miterlimit="10"/>
<path d="M75.7113 322.037C90.0963 332.44 96.1124 348.722 96.1124 348.722C96.1124 348.722 78.7736 348.129 64.3814 337.725C49.9891 327.322 43.9875 311.033 43.9875 311.033C43.9875 311.033 61.3191 311.627 75.7113 322.037Z" fill="#AF3A10"/>
<path d="M43.9875 311.033C43.9875 311.033 61.9851 321.024 67.755 329.291C73.5249 337.559 96.1124 348.722 96.1124 348.722" stroke="#535461" stroke-width="2" stroke-miterlimit="10"/>
<path d="M116.998 347.897C100.471 366.061 96.9739 389.799 96.9739 389.799C96.9739 389.799 120.278 384.08 136.791 365.909C153.305 347.738 156.816 324.006 156.816 324.006C156.816 324.006 133.526 329.733 116.998 347.897Z" fill="#AF3A10"/>
<path d="M156.831 324.014C156.831 324.014 135.3 342.634 129.827 355.462C124.354 368.291 96.9739 389.799 96.9739 389.799" stroke="#535461" stroke-width="2" stroke-miterlimit="10"/>
<path d="M723.717 341.504C723.717 341.504 711.764 282.039 716.34 274.64C716.34 274.64 716.506 267.762 716.231 258.995C716.231 258.662 716.231 258.329 716.231 257.989C717.036 258.526 717.875 259.009 718.743 259.437C722.959 261.603 727.798 262.227 732.426 261.203L728.806 257.171C727.937 256.208 727.032 255.165 726.844 253.891C726.656 252.617 727.177 251.48 727.626 250.344C731.065 241.656 731.246 230.732 724.622 224.1C719.026 218.526 717.664 211.33 711.591 206.241C707.153 202.512 704.713 197.046 702.411 191.761C700.463 187.295 698.501 182.792 697.386 178.057C696.518 174.357 696.17 170.528 694.976 166.915C693.781 163.303 691.544 159.791 688.047 158.177C686.802 157.605 685.419 157.279 684.283 156.519C682.792 155.513 681.894 153.877 680.815 152.443C675.335 145.204 656.982 149.468 648.295 152.407C645.933 153.147 643.746 154.359 641.866 155.969L641.946 155.839C642.011 155.73 642.091 155.622 642.163 155.513C641.212 156.282 640.391 157.198 639.731 158.228C638.464 160.233 637.935 162.571 636.878 164.743C635.604 167.313 628.517 174.488 631.564 177.376C631.778 177.57 632.023 177.727 632.288 177.84C633.433 178.316 634.692 178.442 635.908 178.202L635.778 178.513C634.737 181.062 634.203 183.789 634.207 186.542C634.207 198.436 644.016 208.079 656.128 208.079C658.405 208.082 660.669 207.732 662.839 207.044C662.89 207.319 662.933 207.594 662.984 207.869C662.984 207.978 663.02 208.087 663.035 208.195L662.651 208.731C662.632 208.698 662.61 208.666 662.586 208.637L651.22 224.52C649.482 225.744 639.477 232.983 638.913 238.413C638.319 244.357 637.725 251.314 637.725 251.314L637.646 252.805C637.149 253.22 636.568 253.523 635.943 253.691C635.318 253.86 634.664 253.891 634.026 253.783C630.479 253.203 630.478 266.814 630.478 266.814C630.478 266.814 628.118 268.986 626.497 267.103C624.875 265.221 620.589 271.599 620.589 271.599L593.73 272.758L593.115 272.794L591.667 268.312C591.511 267.84 591.175 267.448 590.732 267.221C590.289 266.995 589.774 266.953 589.3 267.103C589.188 267.14 589.079 267.186 588.974 267.241L588.873 267.299L588.685 267.429L588.59 267.516C588.539 267.563 588.49 267.614 588.446 267.668L588.359 267.769L588.315 267.813C588.148 268.044 588.037 268.311 587.992 268.593C587.947 268.874 587.968 269.163 588.055 269.435L589.3 273.279C584.116 274.321 578.817 277.261 583.139 285.354L561.232 281.307L568.32 287.258L604.908 294.809C604.423 295.678 604.742 296.938 606.255 298.711C612.771 306.364 624.643 308.441 629.421 308.977C630.683 311.8 632.259 314.471 634.12 316.941L633.707 324.564C633.707 324.564 621.61 382.669 619.395 385.615C620.513 384.348 621.537 383 622.457 381.583C618.946 393.521 614.037 409.86 612.749 412.307C610.678 416.217 608.76 432.035 611.12 433.049C611.844 433.36 613.914 433.208 616.868 432.983V434.294L616.738 483.95C616.738 483.95 617.331 514.407 615.703 517.31C614.074 520.213 613.639 526.301 613.639 526.301C613.639 526.301 607.124 538.312 601.962 543.141C601.927 543.178 601.888 543.212 601.846 543.242L601.687 542.113C601.687 542.113 595.482 549.946 581.756 549.504C581.756 549.504 573.496 554.876 585.745 555.165C597.995 555.455 613.639 554.731 613.639 554.731C613.639 554.731 624.564 538.08 633.715 540.252V552.87H636.516V540.049C637.816 539.194 638.928 538.084 639.785 536.786C640.642 535.488 641.227 534.029 641.504 532.498C641.744 530.921 641.568 529.307 640.995 527.818C640.421 526.329 639.469 525.015 638.232 524.006C637.677 523.504 637.231 522.892 636.923 522.21C636.615 521.527 636.452 520.788 636.444 520.039L636.343 520.126C636.343 519.873 636.277 519.612 636.248 519.344C635.445 512.828 634.439 499.385 637.993 489.437C642.865 475.798 644.342 456.802 640.795 445.493C639.65 441.879 638.71 438.202 637.979 434.482C637.892 434.011 637.812 433.563 637.74 433.143C640.165 433.471 642.566 433.954 644.929 434.591C653.146 436.857 671.121 437.276 686.469 437.153C686.505 437.573 686.549 438.015 686.6 438.457C686.873 441.526 687.445 444.562 688.308 447.52C690.234 453.312 691.117 478.846 691.117 478.846C691.117 478.846 693.6 499.841 692.246 508.383C691.522 513.133 690.798 517.903 690.386 522.696V522.79C690.386 522.79 686.317 534.373 683.342 540.665C683.269 540.824 683.19 540.983 683.117 541.135C682.324 541.207 681.543 541.38 680.793 541.649C680.793 541.649 676.804 549.613 672.83 550.93C668.855 552.248 670.173 556.584 679.172 554.992C688.171 553.399 701.759 552.096 701.759 552.096L702.346 543.973L705.111 540.513L704.387 548.614L707.334 548.034L706.943 538.181L711.467 532.52C711.467 532.52 716.933 527.655 708.81 518.084V518.294C708.724 518.157 708.644 518.012 708.55 517.874V517.831C707.203 515.746 706.132 511.858 708.094 504.959C711.641 492.493 713.704 481.177 713.704 481.177C713.704 481.177 721.625 450.865 712.104 436.524H712.524C711.549 434.505 710.859 432.361 710.476 430.153C710.427 429.892 710.384 429.624 710.345 429.349C717.389 428.944 724.303 427.67 729.943 424.919C729.921 424.89 726.526 352.957 723.717 341.504ZM634.287 291.334V291.479L632.839 291.551L634.287 291.334ZM629.32 292.022C629.082 292.075 628.859 292.181 628.669 292.333C628.046 293.214 627.655 294.237 627.532 295.309L625.273 294.802C625.273 294.802 623.688 294.462 621.407 294.078L620.329 292.992C623.297 292.746 626.381 292.384 629.32 292.022V292.022Z" fill="url(#paint1_linear_70_81)"/>
<path d="M704.054 538.283L703.193 548.541L706.081 547.962L705.647 536.835L704.054 538.283Z" fill="#1D2366"/>
<path d="M638.152 489.575C634.67 499.493 635.655 512.879 636.437 519.38C636.726 521.784 636.994 523.246 636.994 523.246C636.994 523.246 631.789 535.105 631.355 535.553C630.92 536.002 616.036 545.088 616.036 545.088L605.632 551.162C605.632 551.162 595.077 546.536 600.138 544.943C601.171 544.528 602.103 543.893 602.867 543.083C607.935 538.268 614.298 526.301 614.298 526.301C614.298 526.301 614.732 520.227 616.325 517.339C617.918 514.45 617.339 484.095 617.339 484.095L617.462 434.612V428.162L637.262 428.307C637.387 430.497 637.672 432.674 638.116 434.822C638.827 438.53 639.748 442.194 640.875 445.797C644.364 457.084 642.916 475.986 638.152 489.575Z" fill="#FFB0B1"/>
<path opacity="0.1" d="M636.994 523.246C636.994 523.246 631.789 535.105 631.355 535.553C630.92 536.002 616.036 545.088 616.036 545.088L605.632 551.162C605.632 551.162 595.077 546.536 600.138 544.943C601.171 544.528 602.103 543.893 602.867 543.083L603.316 546.246L606.783 546.102L636.466 519.395C636.726 521.784 636.994 523.246 636.994 523.246Z" fill="black"/>
<path d="M636.632 520.068L606.783 546.956L603.316 547.101L602.592 542.033C602.592 542.033 596.525 549.837 583.045 549.403C583.045 549.403 574.951 554.753 586.947 555.042C598.943 555.332 614.262 554.608 614.262 554.608C614.262 554.608 624.962 537.957 633.917 540.129V552.704H636.668V540.013C637.947 539.152 639.039 538.041 639.878 536.747C640.716 535.453 641.284 534.003 641.548 532.484C641.786 530.919 641.617 529.319 641.058 527.838C640.499 526.357 639.568 525.045 638.355 524.028C637.813 523.52 637.381 522.907 637.085 522.226C636.788 521.545 636.634 520.811 636.632 520.068V520.068Z" fill="#1D2366"/>
<path d="M706.805 505.039C704.879 511.916 705.929 515.789 707.247 517.867V517.911C708.937 520.476 710.112 523.345 710.707 526.359L710.823 527.011L697.242 546.811L689.872 549.707C689.872 549.707 678.021 545.66 680.185 544.502C680.728 544.219 681.575 542.713 682.545 540.636C685.441 534.373 689.437 522.819 689.437 522.819V522.725C689.857 517.954 690.523 513.198 691.262 508.463C692.587 499.942 690.154 479.027 690.154 479.027C690.154 479.027 689.285 453.594 687.403 447.81C686.553 444.869 685.988 441.853 685.716 438.804C685.325 435.184 685.239 432.202 685.239 432.202C685.239 432.202 693.043 421.342 707.348 433.07C708.492 434.006 709.499 435.098 710.338 436.314C720.22 450.373 712.264 481.344 712.264 481.344C712.264 481.344 710.273 492.608 706.805 505.039Z" fill="#FFB0B1"/>
<path opacity="0.1" d="M710.845 527.011L697.263 546.811L689.894 549.707C689.894 549.707 678.042 545.66 680.207 544.502C680.75 544.219 681.597 542.713 682.567 540.636C687.584 540.592 690.183 545.37 690.183 545.37L696.539 544.357C696.539 544.357 704.923 527.88 706.805 526.873C708.687 525.867 707.095 519.351 707.095 519.351V517.693C707.145 517.751 707.189 517.816 707.247 517.874V517.918C708.937 520.483 710.112 523.353 710.707 526.366L710.845 527.011Z" fill="black"/>
<path d="M690.618 545.797C690.618 545.797 686.998 539.152 680.062 541.606C680.062 541.606 676.16 549.569 672.258 550.858C668.356 552.147 669.659 556.49 678.477 554.905C687.295 553.319 700.586 552.009 700.586 552.009L701.166 543.908L710.128 532.491C710.128 532.491 715.471 527.648 707.522 518.113V519.771C707.522 519.771 709.115 526.287 707.232 527.293C705.35 528.299 696.996 544.784 696.996 544.784L690.618 545.797Z" fill="#1D2366"/>
<path opacity="0.1" d="M637.284 428.292C637.409 430.482 637.694 432.66 638.138 434.808C629.986 433.613 622.421 434.207 617.462 434.598V428.147L637.284 428.292Z" fill="black"/>
<path opacity="0.1" d="M711.142 438.116C711.142 438.116 699.558 438.681 685.745 438.797C685.354 435.177 685.267 432.194 685.267 432.194C685.267 432.194 693.072 421.335 707.377 433.063C708.521 433.998 709.528 435.09 710.367 436.306C710.591 436.924 710.85 437.528 711.142 438.116V438.116Z" fill="black"/>
<path d="M711.142 436.813C711.142 436.813 660.407 439.267 644.943 434.931C629.479 430.594 614.153 434.352 611.844 433.345C609.534 432.339 611.41 416.579 613.437 412.676C615.464 408.774 626.584 369.312 626.584 369.312L637.284 313.523L648.556 310.418L649.352 310.193L668.993 304.778L683.385 300.804C683.385 300.804 712.003 412.532 709.549 420.77C708.658 423.925 708.514 427.244 709.129 430.464C709.504 432.663 710.181 434.8 711.142 436.813V436.813Z" fill="#1D2366"/>
<path d="M599.986 275.371C599.986 275.371 589.85 286.23 597.524 292.283C605.198 298.335 610.244 292.862 610.244 292.862L599.986 275.371Z" fill="#C7DAF5"/>
<path opacity="0.1" d="M599.986 275.371C599.986 275.371 589.85 286.23 597.524 292.283C605.198 298.335 610.244 292.862 610.244 292.862L599.986 275.371Z" fill="black"/>
<path d="M681.872 203.975C681.872 203.975 680.685 205.104 678.897 206.769C676.348 209.151 672.577 212.633 669.232 215.551C664.599 219.583 660.776 222.544 662.144 220.017C663.513 217.491 663.252 213.089 662.571 208.97C662.521 208.695 662.477 208.42 662.427 208.152C661.863 205.126 661.116 202.138 660.19 199.204C660.19 199.204 667.675 189.532 671.816 185.716C673.358 184.268 674.437 183.675 674.502 184.681C674.575 186.035 675.588 189.025 676.848 192.196C676.884 192.297 676.92 192.391 676.964 192.493C677.804 194.664 678.752 196.894 679.584 198.82C680.859 201.774 681.872 203.975 681.872 203.975Z" fill="#FFB0B1"/>
<path opacity="0.1" d="M676.964 192.493C676.26 196.276 674.553 199.802 672.022 202.7C669.49 205.599 666.226 207.764 662.571 208.97C661.996 205.665 661.2 202.402 660.19 199.204C660.19 199.204 674.285 180.996 674.502 184.681C674.553 186.078 675.653 189.177 676.964 192.493Z" fill="black"/>
<path opacity="0.1" d="M661.167 213.835L662.991 211.265C662.991 211.265 664.2 218.635 668.646 215.384C673.091 212.134 673.308 239.847 673.308 239.847L668.537 311.178L634.062 309.115L635.039 274.647L638.942 257.272L648.592 232.013L654.333 223.666L661.167 213.835Z" fill="black"/>
<path d="M673.308 240.288L668.964 304.785L668.508 311.619L649.287 310.468L648.563 310.425L634.084 309.556L635.061 275.081L638.963 257.707L648.614 232.448L654.355 224.1L661.189 214.233L663.013 211.67C663.013 211.67 664.222 219.04 668.667 215.789L668.761 215.724C673.105 212.973 673.308 240.288 673.308 240.288Z" fill="#1D2366"/>
<path d="M639.448 251.669C639.448 251.669 637.718 255.288 634.243 254.702C630.768 254.116 630.775 267.733 630.775 267.733C630.775 267.733 628.466 269.905 626.873 268.023C625.281 266.141 621.082 272.504 621.082 272.504L594.773 273.662C594.773 273.662 606.479 279.013 604.184 295.2C604.184 295.2 643.93 292.739 645.233 288.981C646.536 285.224 639.448 251.669 639.448 251.669Z" fill="white"/>
<path opacity="0.03" d="M639.448 251.669C639.448 251.669 637.718 255.288 634.243 254.702C630.768 254.116 630.775 267.733 630.775 267.733C630.775 267.733 628.466 269.905 626.873 268.023C625.281 266.141 621.082 272.504 621.082 272.504L594.773 273.662C594.773 273.662 606.479 279.013 604.184 295.2C604.184 295.2 643.93 292.739 645.233 288.981C646.536 285.224 639.448 251.669 639.448 251.669Z" fill="black"/>
<path d="M562.991 282.169L569.927 288.091L627.018 300.087L619.938 292.862L562.991 282.169Z" fill="white"/>
<path d="M661.276 216.115C660.327 217.563 657.612 224.976 655.346 231.449C653.457 236.842 651.879 241.584 651.879 241.584C651.879 241.584 648.194 265.576 646.311 269.912C644.429 274.249 645.45 291.16 645.45 291.16L638.435 332.925C638.435 332.925 635.257 354.463 630.348 367.328C625.505 379.99 620.111 385.926 619.945 386.115C622.117 383.175 633.953 325.302 633.953 325.302L637.863 252.313C637.863 252.313 638.435 245.378 639.014 239.448C639.593 233.519 651.321 225.425 651.321 225.425L662.629 209.346C663.766 210.867 663.006 213.516 661.276 216.115Z" fill="white"/>
<path d="M631.789 309.918C631.789 309.918 615.138 309.194 607.073 299.508C599.008 289.821 625.715 295.642 625.715 295.642L632.658 297.234L631.789 309.918Z" fill="#FFB0B1"/>
<path opacity="0.1" d="M709.549 420.777C708.658 423.932 708.514 427.251 709.129 430.471C690.965 431.76 671.534 426.851 671.534 426.851C667.914 430.182 658.38 435.09 658.38 435.09L653.182 370.658C649.859 361.971 648.556 316.455 648.556 316.455C648.556 316.455 648.853 314.074 649.28 310.505C649.28 310.418 649.28 310.324 649.316 310.237C650.612 300.268 653.182 281.554 654.441 279.027C656.179 275.552 649.099 266.307 649.099 266.307L652.32 238.833L652.711 235.517C659.502 232.484 664.707 222.797 664.707 222.797L668.703 215.797C673.047 213.009 673.272 240.324 673.272 240.324L668.928 304.822L683.32 300.847C683.32 300.847 712.003 412.539 709.549 420.777Z" fill="black"/>
<path d="M728.191 425.23C708.391 435.061 672.403 425.954 672.403 425.954C668.783 429.284 659.249 434.192 659.249 434.192L654.043 369.76C650.728 361.073 649.424 315.558 649.424 315.558C649.424 315.558 653.609 281.597 655.346 278.129C655.853 277.116 655.607 275.61 655.006 273.988C652.052 266.27 650.965 257.962 651.835 249.743L653.225 237.935L653.609 234.627C660.407 231.586 665.612 221.9 665.612 221.9L669.232 215.558L675.892 203.873L679.049 198.342L679.584 198.827L683.675 202.534C683.675 202.534 685.412 203.982 688.019 206.154C693.687 210.932 703.482 219.344 708.535 224.491C712.98 229.023 714.385 246.652 714.79 259.922C715.058 268.66 714.899 275.509 714.899 275.509C710.418 282.886 722.139 342.113 722.139 342.113C724.868 353.558 728.191 425.23 728.191 425.23Z" fill="white"/>
<path opacity="0.03" d="M690.183 221.755C690.183 221.755 676.595 247.622 678.173 257.453C679.751 267.284 684.239 278.412 682.075 281.011C681.331 281.995 680.37 282.795 679.266 283.346C678.162 283.897 676.945 284.186 675.711 284.189C673.539 284.334 667.748 288.381 667.748 288.815C667.748 289.249 662.398 289.249 657.612 291.276C652.827 293.303 645.761 294.454 645.761 294.454C645.761 294.454 632.006 294.02 630.725 295.323C629.443 296.626 628.126 304.423 630.869 310.642C633.613 316.861 636.661 321.501 638.963 322.349C641.265 323.196 655.875 318.302 667.726 317.143C679.577 315.985 692.442 306.595 692.442 306.595C692.442 306.595 706.61 301.528 709.093 293.007C711.576 284.486 706.06 237.653 706.06 237.653C706.06 237.653 701.89 215.826 690.183 221.755Z" fill="black"/>
<path opacity="0.03" d="M688.446 219.583C688.446 219.583 674.857 245.457 676.45 255.281C678.042 265.105 682.516 276.24 680.345 278.846C679.603 279.832 678.644 280.632 677.541 281.183C676.438 281.735 675.221 282.023 673.988 282.024C671.816 282.169 666.025 286.216 666.025 286.65C666.025 287.085 660.675 287.085 655.889 289.104C651.104 291.124 644.038 292.283 644.038 292.283C644.038 292.283 630.283 291.848 629.009 293.151C627.735 294.455 626.403 302.259 629.154 308.47C631.905 314.682 634.945 319.33 637.247 320.177C639.55 321.024 654.159 316.13 666.01 314.979C677.861 313.828 690.726 304.423 690.726 304.423C690.726 304.423 704.887 299.356 707.341 290.842C709.795 282.328 704.307 235.481 704.307 235.481C704.307 235.481 700.152 213.661 688.446 219.583Z" fill="black"/>
<path d="M689.756 220.452C689.756 220.452 676.167 246.326 677.76 256.15C679.353 265.974 683.827 277.109 681.662 279.708C680.921 280.696 679.96 281.498 678.856 282.051C677.752 282.603 676.534 282.892 675.299 282.893C673.127 283.038 667.335 287.085 667.335 287.512C667.335 287.939 661.992 287.946 657.2 289.973C652.407 292 645.349 293.151 645.349 293.151C645.349 293.151 631.593 292.717 630.312 294.02C629.031 295.323 627.713 303.127 630.457 309.339C633.201 315.551 636.248 320.198 638.551 321.045C640.853 321.892 655.462 316.998 667.313 315.84C679.165 314.682 692.029 305.292 692.029 305.292C692.029 305.292 706.197 300.224 708.68 291.703C711.163 283.182 705.683 236.35 705.683 236.35C705.683 236.35 701.455 214.559 689.756 220.452Z" fill="white"/>
<path opacity="0.1" d="M689.459 289.85C689.459 289.85 678.6 287.678 682.379 291.298C686.158 294.918 686.136 298.089 690.762 297.944C695.388 297.799 689.459 289.85 689.459 289.85Z" fill="black"/>
<path opacity="0.1" d="M707.811 367.733C707.811 367.733 702.903 371.056 712.293 378.716C721.682 386.375 707.811 367.733 707.811 367.733Z" fill="black"/>
<path opacity="0.1" d="M698.443 395.048C698.443 395.482 696.706 410.975 703.207 414.848C709.708 418.721 698.443 395.048 698.443 395.048Z" fill="black"/>
<path d="M595.222 273.626C589.98 273.807 578.658 275.407 584.529 286.361C589.72 296.054 598.444 289.575 603.352 284.659C602.155 280.076 599.245 276.127 595.222 273.626V273.626Z" fill="#FFB0B1"/>
<path d="M603.417 284.572L603.634 284.348L603.417 284.572Z" fill="#FFB0B1"/>
<path opacity="0.1" d="M688.019 206.595C682.459 210.396 677.796 213.603 676.884 214.269C674.394 216.115 669.645 226.953 666.582 232.484C664.142 236.936 656.215 238.08 653.225 238.362L653.609 235.054C660.407 232.013 665.612 222.327 665.612 222.327L679.049 198.769L683.675 202.975C683.675 202.975 685.412 204.423 688.019 206.595Z" fill="black"/>
<path d="M688.019 206.161C682.459 209.962 677.796 213.169 676.884 213.842C674.394 215.681 669.645 226.519 666.582 232.05C664.142 236.502 656.215 237.646 653.225 237.928L653.609 234.62C660.407 231.579 665.612 221.892 665.612 221.892L679.049 198.335L683.675 202.527C683.675 202.527 685.412 203.96 688.019 206.161Z" fill="#DCE7FF"/>
<path d="M677.318 187.714C677.322 192.06 676.004 196.304 673.539 199.884C670.629 204.117 666.298 207.166 661.332 208.478C656.366 209.79 651.094 209.279 646.473 207.037C641.852 204.795 638.187 200.97 636.144 196.258C634.102 191.545 633.816 186.256 635.339 181.35C636.863 176.445 640.094 172.248 644.447 169.521C648.8 166.794 653.986 165.718 659.064 166.488C664.143 167.258 668.777 169.823 672.126 173.718C675.475 177.612 677.318 182.578 677.318 187.714V187.714Z" fill="#FFB0B1"/>
<path opacity="0.1" d="M714.79 259.929C711.85 258.121 709.456 255.548 707.862 252.487C706.653 250.098 705.85 247.339 703.786 245.645C701.926 244.125 699.443 243.756 697.126 243.075C689.51 240.824 683.125 233.874 682.886 225.939C682.77 222.204 683.935 218.475 683.407 214.776C683.106 212.682 682.274 210.701 680.989 209.02C680.351 208.217 679.651 207.464 678.897 206.769C677.883 205.813 676.819 204.887 675.892 203.873C675.308 203.246 674.798 202.553 674.372 201.81C674.028 201.201 673.749 200.558 673.539 199.891C672.091 195.461 673.409 190.205 671.816 185.724L671.73 185.477C671.129 183.885 669.905 182.292 668.204 182.169C666.503 182.046 665.047 183.458 663.426 184.087C660.03 185.405 656.367 183.161 653.536 180.873C650.706 178.585 647.513 175.972 643.915 176.479C641.533 176.819 639.651 178.441 637.457 179.28C636.962 179.472 636.451 179.62 635.93 179.722C637.786 175.092 641.197 171.254 645.576 168.866C649.955 166.478 655.029 165.689 659.927 166.636C664.824 167.582 669.239 170.205 672.413 174.053C675.586 177.901 677.321 182.734 677.318 187.722C677.321 189.228 677.163 190.73 676.848 192.203C676.884 192.304 676.92 192.398 676.964 192.5C677.804 194.672 678.752 196.901 679.584 198.827L683.675 202.534C683.675 202.534 685.412 203.982 688.019 206.154C693.687 210.932 703.482 219.344 708.535 224.491C712.98 229.038 714.37 246.659 714.79 259.929Z" fill="black"/>
<path d="M637.204 166.054C638.239 163.947 638.753 161.587 639.991 159.589C641.808 156.693 644.979 154.84 648.237 153.718C656.744 150.785 674.719 146.529 680.091 153.718C681.148 155.165 682.024 156.773 683.487 157.772C684.601 158.532 685.948 158.858 687.171 159.43C690.596 161.037 692.782 164.541 693.948 168.117C695.113 171.693 695.461 175.53 696.315 179.215C697.408 183.943 699.327 188.424 701.238 192.876C703.489 198.132 705.878 203.584 710.222 207.297C716.151 212.365 717.462 219.54 722.964 225.1C729.479 231.702 729.269 242.598 725.91 251.249C725.469 252.385 724.969 253.573 725.143 254.782C725.317 255.991 726.214 257.091 727.061 258.054L730.623 262.072C722.196 264.106 712.662 259.705 708.738 251.98C707.529 249.591 706.726 246.84 704.655 245.139C702.802 243.618 700.311 243.256 698.002 242.576C690.386 240.317 684.001 233.36 683.762 225.425C683.646 221.697 684.811 217.969 684.283 214.276C683.989 212.169 683.153 210.173 681.858 208.485C679.867 205.886 676.862 204.141 675.241 201.245C672.497 196.402 674.582 190.111 672.605 184.913C671.997 183.32 670.781 181.727 669.08 181.604C667.379 181.481 665.923 182.893 664.294 183.523C660.906 184.84 657.243 182.603 654.412 180.308C651.582 178.013 648.389 175.407 644.784 175.921C642.402 176.254 640.527 177.876 638.333 178.723C636.712 179.346 633.425 179.903 632.006 178.535C629.009 175.776 635.952 168.631 637.204 166.054Z" fill="#591D4B"/>
<path opacity="0.1" d="M710.751 249.591C709.534 247.202 708.738 244.451 706.668 242.757C704.814 241.237 702.324 240.867 700.007 240.187C692.398 237.935 686.013 230.978 685.767 223.044C685.651 219.315 686.817 215.58 686.295 211.887C685.992 209.793 685.157 207.812 683.87 206.132C681.872 203.533 678.868 201.788 677.253 198.892C674.509 194.056 676.594 187.765 674.611 182.56C674.01 180.974 672.786 179.382 671.092 179.251C669.398 179.121 667.929 180.547 666.307 181.177C662.919 182.495 659.249 180.25 656.425 177.963C653.602 175.675 650.395 173.062 646.796 173.568C644.415 173.909 642.532 175.53 640.346 176.37C638.724 176.993 635.43 177.557 634.011 176.189C631.029 173.293 637.971 166.162 639.217 163.599C640.252 161.486 640.766 159.133 642.011 157.135C642.076 157.026 642.149 156.917 642.221 156.809C641.29 157.58 640.486 158.494 639.839 159.516C638.601 161.515 638.087 163.86 637.052 165.981C635.8 168.544 628.857 175.697 631.847 178.571C633.295 179.946 636.552 179.382 638.174 178.759C640.346 177.912 642.243 176.29 644.625 175.957C648.244 175.443 651.43 178.057 654.253 180.345C657.077 182.632 660.769 184.877 664.142 183.559C665.764 182.929 667.183 181.51 668.921 181.64C670.658 181.771 671.816 183.356 672.446 184.949C674.423 190.147 672.338 196.438 675.081 201.281C676.703 204.127 679.707 205.907 681.698 208.521C682.994 210.209 683.83 212.205 684.124 214.313C684.652 218.005 683.487 221.733 683.602 225.462C683.841 233.425 690.227 240.353 697.843 242.612C700.138 243.293 702.642 243.655 704.496 245.175C706.573 246.876 707.392 249.627 708.579 252.016C712.503 259.741 722.037 264.142 730.464 262.108L728.784 260.211C721.48 260.32 714.088 256.164 710.751 249.591Z" fill="black"/>
<path opacity="0.1" d="M660.841 216.55C659.893 217.998 657.178 225.411 654.912 231.883C652.791 231.058 650.865 225.795 650.865 225.795L662.173 209.708C663.332 211.301 662.571 213.943 660.841 216.55Z" fill="black"/>
<path d="M661.276 216.115C660.327 217.563 657.612 224.976 655.346 231.449C653.225 230.631 651.299 225.36 651.299 225.36L662.608 209.281C663.766 210.867 663.006 213.516 661.276 216.115Z" fill="#DCE7FF"/>
<path d="M595.526 290.075L589.256 270.303C589.182 270.072 589.154 269.828 589.175 269.586C589.195 269.344 589.263 269.108 589.375 268.892C589.486 268.676 589.64 268.484 589.825 268.328C590.011 268.171 590.226 268.053 590.458 267.979V267.979C590.925 267.834 591.43 267.878 591.864 268.103C592.298 268.328 592.625 268.716 592.775 269.181L599.044 288.931L598.422 293.065L595.526 290.075Z" fill="#BE8B87"/>
<path opacity="0.1" d="M589.85 268.566C590.318 268.418 590.825 268.461 591.26 268.687C591.696 268.912 592.024 269.301 592.174 269.768L598.443 289.517L597.973 292.616L598.429 293.093L599.052 288.96L592.746 269.21C592.596 268.745 592.269 268.357 591.835 268.132C591.401 267.907 590.896 267.863 590.429 268.008V268.008C590.037 268.136 589.698 268.391 589.466 268.732C589.589 268.666 589.718 268.611 589.85 268.566V268.566Z" fill="white"/>
<path d="M595.526 290.075L599.044 288.96L598.53 292.348L598.422 293.093L597.394 292.022L595.526 290.075Z" fill="#EFC8C4"/>
<path d="M597.394 292.022C597.455 291.945 597.531 291.881 597.618 291.834C597.669 291.802 597.728 291.785 597.788 291.785C597.849 291.785 597.908 291.802 597.958 291.834C598.008 291.893 598.049 291.959 598.082 292.029C598.129 292.109 598.195 292.177 598.272 292.229C598.35 292.28 598.438 292.313 598.53 292.326L598.422 293.05L597.394 292.022Z" fill="#727A9C"/>
<path d="M589.22 277.326C589.22 277.326 601.795 277.253 598.834 282.603C595.873 287.953 591.247 288.598 591.247 288.598L589.22 277.326Z" fill="#FFB0B1"/>
<path d="M511.011 37.2258H510.468C488.866 37.2258 469.76 48.6571 458.771 65.5252C447.781 48.6571 428.676 37.2258 407.073 37.2258H406.53C390.318 37.3803 374.821 43.9267 363.409 55.4425C351.996 66.9583 345.589 82.5128 345.58 98.7258C345.58 118.859 354.398 147.426 371.592 170.933C404.351 215.724 458.771 254.912 458.771 254.912C458.771 254.912 513.19 215.732 545.942 170.933C563.143 147.426 571.954 118.859 571.954 98.7258C571.945 82.514 565.539 66.9606 554.128 55.445C542.717 43.9295 527.222 37.3822 511.011 37.2258V37.2258ZM503.243 174.379C500.783 174.37 498.383 173.617 496.358 172.219C494.334 170.821 492.779 168.843 491.899 166.546H478.984C478.133 166.541 477.305 166.27 476.616 165.772C475.927 165.273 475.411 164.572 475.139 163.766L471.172 151.813L458.619 195.678C458.374 196.522 457.862 197.265 457.16 197.793C456.458 198.322 455.603 198.609 454.724 198.61H454.47C453.553 198.566 452.679 198.208 451.994 197.597C451.309 196.985 450.854 196.157 450.706 195.251L437.769 117.44L428.314 163.484C428.097 164.358 427.594 165.135 426.884 165.69C426.174 166.245 425.298 166.547 424.397 166.546H406.204C405.659 166.569 405.115 166.482 404.604 166.289C404.093 166.096 403.627 165.802 403.233 165.424C402.839 165.046 402.525 164.593 402.311 164.091C402.097 163.589 401.986 163.049 401.986 162.503C401.986 161.957 402.097 161.417 402.311 160.915C402.525 160.413 402.839 159.959 403.233 159.581C403.627 159.204 404.093 158.909 404.604 158.717C405.115 158.524 405.659 158.436 406.204 158.459H421.212L434.605 96.554C434.825 95.6387 435.356 94.8282 436.107 94.2611C436.858 93.694 437.783 93.4054 438.724 93.4448C439.664 93.4841 440.562 93.8489 441.263 94.4767C441.964 95.1046 442.426 95.9566 442.569 96.887L455.781 176.261L467.031 137.016C467.265 136.189 467.761 135.461 468.443 134.939C469.125 134.417 469.958 134.13 470.817 134.12H470.897C471.748 134.12 472.577 134.389 473.266 134.888C473.955 135.388 474.469 136.092 474.734 136.9L481.908 158.481H491.74C492.439 156.358 493.711 154.468 495.416 153.022C497.121 151.576 499.192 150.629 501.401 150.285C503.61 149.942 505.871 150.215 507.935 151.076C509.998 151.936 511.784 153.35 513.095 155.161C514.405 156.973 515.19 159.111 515.362 161.34C515.535 163.569 515.088 165.802 514.071 167.793C513.054 169.784 511.507 171.456 509.6 172.623C507.693 173.79 505.501 174.408 503.265 174.408L503.243 174.379Z" fill="#AF3A10"/>
</g>
<defs>
<linearGradient id="paint0_linear_70_81" x1="257.967" y1="560.972" x2="257.967" y2="115.493" gradientUnits="userSpaceOnUse">
<stop stop-color="#808080" stop-opacity="0.25"/>
<stop offset="0.54" stop-color="#808080" stop-opacity="0.12"/>
<stop offset="1" stop-color="#808080" stop-opacity="0.1"/>
</linearGradient>
<linearGradient id="paint1_linear_70_81" x1="646.804" y1="555.339" x2="646.804" y2="148.476" gradientUnits="userSpaceOnUse">
<stop stop-color="#808080" stop-opacity="0.25"/>
<stop offset="0.54" stop-color="#808080" stop-opacity="0.12"/>
<stop offset="1" stop-color="#808080" stop-opacity="0.1"/>
</linearGradient>
<clipPath id="clip0_70_81">
<rect width="800" height="566.669" fill="white"/>
</clipPath>
</defs>
</svg>
