<svg width="400" height="300" viewBox="0 0 400 300" fill="none" xmlns="http://www.w3.org/2000/svg">
<g clip-path="url(#clip0_78_30)">
<path d="M53.1447 193.863C54.247 195.704 55.7395 197.281 57.5172 198.482C59.2948 199.684 61.3143 200.481 63.4334 200.818C65.5525 201.155 67.7197 201.023 69.7823 200.432C71.8449 199.84 73.7527 198.804 75.3714 197.395L120.616 223.345L118.929 196.293L76.2232 175.799C73.6768 173.236 70.2789 171.697 66.6733 171.472C63.0678 171.248 59.5051 172.353 56.6604 174.58C53.8156 176.807 51.8865 179.999 51.2386 183.553C50.5906 187.107 51.2688 190.776 53.1447 193.863Z" fill="#FFB8B8"/>
<path d="M184.131 297.815C170.71 316.6 171.19 348.026 174.935 382.421H238.39L241.149 375.984L244.827 382.421H304.603C304.603 382.421 300.005 295.056 291.728 292.297C283.452 289.538 184.131 297.815 184.131 297.815Z" fill="#2F2E41"/>
<path d="M238.39 101.559C256.166 101.559 270.577 87.1478 270.577 69.3714C270.577 51.5949 256.166 37.1842 238.39 37.1842C220.613 37.1842 206.202 51.5949 206.202 69.3714C206.202 87.1478 220.613 101.559 238.39 101.559Z" fill="#FFB8B8"/>
<path d="M261.653 109.909L267.948 121.974L311.484 141.381L300.04 252.128L295.223 263.597L297.826 273.556L291.552 280.906C297.849 286.605 298.649 292.57 295.223 298.74L275.175 303.333C275.175 303.333 163.701 313.245 173.096 295.976C183.361 277.106 185.974 221.38 163.314 191.601C144.075 166.319 158.845 133.513 158.845 133.513L204.48 119.876L221.264 109.909L261.653 109.909Z" fill="#3F3D56"/>
<path d="M252.679 22.2222C252.831 21.9022 253.074 21.6347 253.378 21.454C253.683 21.2734 254.034 21.1879 254.388 21.2084C239.652 20.327 224.13 22.0445 211.802 30.165C208.816 32.1323 206 34.4789 202.75 35.906C202.596 35.9749 202.463 36.0824 202.364 36.2178C202.264 36.3533 202.201 36.5123 202.181 36.6793C202.161 36.8462 202.185 37.0155 202.249 37.1708C202.314 37.326 202.418 37.4618 202.551 37.5651L202.908 37.845C203.048 37.9555 203.156 38.1024 203.219 38.2699C203.283 38.4374 203.299 38.6189 203.266 38.7949C203.233 38.9708 203.152 39.1344 203.033 39.2678C202.914 39.4012 202.76 39.4993 202.589 39.5515C202.41 39.6059 202.251 39.7102 202.13 39.852C202.009 39.9939 201.931 40.1674 201.905 40.3522C201.879 40.537 201.907 40.7253 201.984 40.8949C202.062 41.0646 202.186 41.2085 202.343 41.3098L205.079 43.0779C205.216 43.1653 205.33 43.286 205.409 43.4288C205.488 43.5716 205.53 43.732 205.531 43.8952C205.532 44.0584 205.492 44.2192 205.414 44.3629C205.337 44.5065 205.224 44.6284 205.088 44.7174C204.856 44.8605 204.613 44.9839 204.36 45.0863C204.203 45.1452 204.064 45.2437 203.956 45.3721C203.848 45.5005 203.775 45.6546 203.744 45.8194C203.713 45.9843 203.725 46.1544 203.778 46.3133C203.832 46.4722 203.926 46.6146 204.051 46.7267C205.235 47.7813 206.144 49.1097 206.697 50.596C207.609 52.9667 207.773 55.5487 207.927 58.0841C208.869 54.4258 212.862 52.2724 216.633 52.0536C220.404 51.8348 224.082 53.0791 227.753 53.9736C235.747 55.9162 244.049 56.2356 252.168 54.9129C249.411 60.446 251.737 67.0459 254.077 72.7678L261.653 69.5206C272.058 63.6475 264.81 88.4917 260.921 91.9024C268.863 94.6559 289.65 64.0951 282.963 52.5026C279.484 46.4724 281.954 38.6949 275.115 32.9757C271.763 29.4471 265.07 31.0154 261.653 28.0827C260.308 26.9285 262.358 23.8404 260.51 23.1674C259.896 22.9439 252.781 21.9969 252.679 22.2222Z" fill="#2F2E41"/>
<path d="M198.159 122.991C192.253 149.212 177.104 210.436 161.736 223.24C160.761 224.16 159.592 224.85 158.316 225.259C104.294 238.419 86.9847 204.849 86.9847 204.849C86.9847 204.849 101.462 197.795 101.829 184.005L131.024 193.063L156.475 135.79L160.22 132.296L160.241 132.275L198.159 122.991Z" fill="#3F3D56"/>
<path d="M313.341 365.132C314.888 363.645 316.09 361.837 316.863 359.835C317.635 357.833 317.959 355.686 317.812 353.546C317.666 351.405 317.051 349.323 316.012 347.445C314.973 345.568 313.536 343.941 311.8 342.679L326.944 292.768L300.96 300.477L290.562 346.691C288.636 349.747 287.898 353.404 288.487 356.968C289.077 360.532 290.953 363.756 293.761 366.029C296.569 368.302 300.113 369.466 303.722 369.301C307.33 369.136 310.753 367.652 313.341 365.132V365.132Z" fill="#FFB8B8"/>
<path d="M299.481 138.589L311.484 141.381C311.484 141.381 361.096 237.91 349.141 256.302C337.186 274.695 322.539 335.588 322.539 335.588C322.539 335.588 300.877 331.282 292.601 320.246L307.757 248.026L292.123 187.33L299.481 138.589Z" fill="#3F3D56"/>
<path d="M71.7607 281.931L72.1917 126.466C72.204 123.319 73.4639 120.306 75.695 118.087C77.9262 115.868 80.9464 114.625 84.093 114.63L201.503 114.956C204.65 114.968 207.663 116.228 209.882 118.459C212.101 120.69 213.344 123.71 213.339 126.857L212.908 282.322C212.896 285.469 211.636 288.482 209.405 290.701C207.173 292.919 204.153 294.163 201.007 294.157L83.5962 293.832C80.4496 293.82 77.4363 292.56 75.2175 290.329C72.9987 288.097 71.7555 285.077 71.7607 281.931V281.931Z" fill="#E6E6E6"/>
<path d="M80.897 234.999L81.1741 135.052C81.1855 132.105 82.3655 129.283 84.455 127.205C86.5446 125.127 89.3731 123.963 92.32 123.967L193.224 124.247C196.171 124.259 198.993 125.439 201.072 127.528C203.15 129.618 204.314 132.446 204.309 135.393L203.926 273.736C203.914 276.683 202.734 279.505 200.644 281.583C198.555 283.661 195.726 284.825 192.779 284.82L130.271 284.647C117.144 284.596 104.574 279.34 95.318 270.032C86.0617 260.724 80.8755 248.125 80.897 234.999V234.999Z" fill="white"/>
<path d="M181.662 167.87H102.983C101.731 167.87 100.53 167.373 99.6448 166.487C98.7595 165.602 98.2621 164.401 98.2621 163.149C98.2621 161.897 98.7595 160.697 99.6448 159.811C100.53 158.926 101.731 158.429 102.983 158.429H181.662C182.914 158.429 184.115 158.926 185.001 159.811C185.886 160.697 186.383 161.897 186.383 163.149C186.383 164.401 185.886 165.602 185.001 166.487C184.115 167.373 182.914 167.87 181.662 167.87V167.87Z" fill="#AF3A10"/>
<path d="M120.292 146.102H102.983C101.731 146.102 100.53 145.605 99.6448 144.719C98.7595 143.834 98.2621 142.633 98.2621 141.381C98.2621 140.129 98.7595 138.928 99.6448 138.043C100.53 137.158 101.731 136.66 102.983 136.66H120.292C121.544 136.66 122.745 137.158 123.63 138.043C124.516 138.928 125.013 140.129 125.013 141.381C125.013 142.633 124.516 143.834 123.63 144.719C122.745 145.605 121.544 146.102 120.292 146.102Z" fill="#AF3A10"/>
<path d="M181.662 189.638H102.983C101.731 189.638 100.53 189.141 99.6448 188.255C98.7595 187.37 98.2621 186.169 98.2621 184.917C98.2621 183.665 98.7595 182.465 99.6448 181.579C100.53 180.694 101.731 180.197 102.983 180.197H181.662C182.914 180.197 184.115 180.694 185.001 181.579C185.886 182.465 186.383 183.665 186.383 184.917C186.383 186.169 185.886 187.37 185.001 188.255C184.115 189.141 182.914 189.638 181.662 189.638Z" fill="#AF3A10"/>
<path d="M181.662 211.406H102.983C101.731 211.406 100.53 210.909 99.6448 210.023C98.7595 209.138 98.2621 207.937 98.2621 206.685C98.2621 205.433 98.7595 204.233 99.6448 203.347C100.53 202.462 101.731 201.965 102.983 201.965H181.662C182.914 201.965 184.115 202.462 185.001 203.347C185.886 204.233 186.383 205.433 186.383 206.685C186.383 207.937 185.886 209.138 185.001 210.023C184.115 210.909 182.914 211.406 181.662 211.406V211.406Z" fill="#AF3A10"/>
<path d="M175.296 268.764C185.67 268.764 194.08 260.354 194.08 249.98C194.08 239.606 185.67 231.196 175.296 231.196C164.922 231.196 156.512 239.606 156.512 249.98C156.512 260.354 164.922 268.764 175.296 268.764Z" fill="#AF3A10"/>
<path d="M172.734 259.756C172.409 259.756 172.089 259.681 171.799 259.535C171.509 259.39 171.257 259.18 171.062 258.92L165.938 252.087C165.773 251.868 165.653 251.618 165.584 251.352C165.516 251.086 165.5 250.809 165.539 250.537C165.578 250.265 165.67 250.004 165.81 249.768C165.949 249.531 166.134 249.325 166.354 249.16C166.574 248.995 166.824 248.875 167.09 248.807C167.356 248.739 167.633 248.724 167.905 248.763C168.176 248.802 168.438 248.895 168.674 249.035C168.91 249.175 169.116 249.36 169.281 249.58L172.633 254.05L181.244 241.134C181.396 240.905 181.592 240.708 181.82 240.554C182.048 240.401 182.304 240.294 182.574 240.239C182.843 240.185 183.121 240.184 183.39 240.237C183.66 240.29 183.917 240.396 184.146 240.549C184.374 240.701 184.571 240.898 184.724 241.126C184.876 241.355 184.983 241.611 185.036 241.881C185.09 242.151 185.089 242.428 185.035 242.698C184.981 242.967 184.875 243.224 184.721 243.452L174.472 258.826C174.287 259.104 174.038 259.333 173.745 259.495C173.453 259.657 173.126 259.746 172.792 259.755C172.772 259.756 172.753 259.756 172.734 259.756Z" fill="white"/>
<path d="M135.242 78.4376C140.166 78.4376 144.159 74.4453 144.159 69.5206C144.159 64.5959 140.166 60.6036 135.242 60.6036C130.317 60.6036 126.324 64.5959 126.324 69.5206C126.324 74.4453 130.317 78.4376 135.242 78.4376Z" fill="#F2F2F2"/>
<path d="M307.812 113.057C312.737 113.057 316.729 109.064 316.729 104.14C316.729 99.2149 312.737 95.2226 307.812 95.2226C302.887 95.2226 298.895 99.2149 298.895 104.14C298.895 109.064 302.887 113.057 307.812 113.057Z" fill="#F2F2F2"/>
</g>
<defs>
<clipPath id="clip0_78_30">
<rect width="300" height="278" fill="white" transform="translate(51 21)"/>
</clipPath>
</defs>
</svg>
