<svg xmlns="http://www.w3.org/2000/svg" xmlns:xlink="http://www.w3.org/1999/xlink" viewBox="0 0 740.61 261.7"><defs><style>.cls-1{fill:url(#linear-gradient);}.cls-2{fill:#c70b15;}.cls-3{fill:#565758;}</style><linearGradient id="linear-gradient" x1="5.09" y1="74.33" x2="198.51" y2="74.33" gradientUnits="userSpaceOnUse"><stop offset="0" stop-color="#a2a3a4" stop-opacity="0"/><stop offset="0.5" stop-color="#a2a3a4"/><stop offset="1" stop-color="#a2a3a4" stop-opacity="0"/></linearGradient></defs><g id="Layer_2" data-name="Layer 2"><g id="Layer_1-2" data-name="Layer 1"><polygon class="cls-1" points="111.08 148.66 90.78 8.72 82.91 97.93 80.95 98.04 76.62 76.99 67.32 98.91 59.92 60.57 52.36 73.67 5.09 73.67 5.09 71.68 51.21 71.68 60.87 54.97 68.04 92.14 77.29 70.34 81.53 90.99 89.54 0.06 91.52 0 111.79 139.76 119.35 49.08 121.31 48.97 129.27 89.03 135.56 73 198.51 73.33 198.5 75.32 136.91 75 128.64 96.06 120.74 56.29 113.05 148.6 111.08 148.66"/><path class="cls-2" d="M173.66,101c-40.59-28.38-72.07,8.2-75.23,12.07C95.28,109.22,63.8,72.64,23.2,101-19.52,130.89,8,170.76,17.74,180.51c7.2,7.18,75.91,76.37,80.69,81.19,4.78-4.82,73.5-74,80.7-81.19C188.9,170.76,216.39,130.89,173.66,101Z"/><path class="cls-3" d="M230.92,121.64a8.9,8.9,0,0,0,1.58,4.76q2.38,3,8.3,3a12.42,12.42,0,0,0,6.19-1.5,5,5,0,0,0,2.67-4.64,4,4,0,0,0-2.13-3.62,25.73,25.73,0,0,0-5.4-1.75l-5-1.24a25.15,25.15,0,0,1-7.08-2.62,7.82,7.82,0,0,1-4.06-7,10.58,10.58,0,0,1,3.82-8.48q3.83-3.24,10.29-3.24,8.44,0,12.19,4.89a10.58,10.58,0,0,1,2.27,6.69H248.7a7.13,7.13,0,0,0-1.52-3.81c-1.46-1.62-4-2.43-7.58-2.43a9.26,9.26,0,0,0-5.45,1.34,4.14,4.14,0,0,0-1.85,3.54,4.33,4.33,0,0,0,2.43,3.84,15.06,15.06,0,0,0,4.14,1.52l4.18,1q6.81,1.62,9.13,3.13,3.62,2.39,3.62,7.48a11.36,11.36,0,0,1-3.79,8.51q-3.78,3.58-11.53,3.58-8.34,0-11.81-3.74a14,14,0,0,1-3.71-9.25Z"/><path class="cls-3" d="M265.39,96.32l7.1,29.08,7.2-29.08h7l7.24,28.91,7.55-28.91h6.2l-10.72,36.9h-6.44L283,104.65l-7.27,28.57h-6.45l-10.64-36.9Z"/><path class="cls-3" d="M313.48,82.6h6.31v7h-6.31Zm0,13.89h6.31v36.73h-6.31Z"/><path class="cls-3" d="M332.85,121.64a8.9,8.9,0,0,0,1.58,4.76q2.38,3,8.3,3a12.42,12.42,0,0,0,6.19-1.5,5,5,0,0,0,2.67-4.64,4,4,0,0,0-2.13-3.62,25.73,25.73,0,0,0-5.4-1.75l-5-1.24A25.15,25.15,0,0,1,332,114a7.82,7.82,0,0,1-4.06-7,10.58,10.58,0,0,1,3.82-8.48q3.83-3.24,10.29-3.24,8.45,0,12.19,4.89a10.58,10.58,0,0,1,2.27,6.69h-5.86a7.13,7.13,0,0,0-1.52-3.81c-1.46-1.62-4-2.43-7.58-2.43a9.26,9.26,0,0,0-5.45,1.34,4.14,4.14,0,0,0-1.85,3.54,4.33,4.33,0,0,0,2.43,3.84,15.06,15.06,0,0,0,4.14,1.52l4.18,1q6.81,1.62,9.13,3.13,3.61,2.39,3.62,7.48a11.36,11.36,0,0,1-3.79,8.51q-3.78,3.58-11.53,3.58-8.34,0-11.81-3.74a14,14,0,0,1-3.71-9.25Z"/><path class="cls-3" d="M368.13,121.64a8.9,8.9,0,0,0,1.59,4.76q2.38,3,8.3,3a12.44,12.44,0,0,0,6.19-1.5,5,5,0,0,0,2.67-4.64,4,4,0,0,0-2.13-3.62,26,26,0,0,0-5.4-1.75l-5-1.24a25.19,25.19,0,0,1-7.07-2.62,7.8,7.8,0,0,1-4.06-7A10.58,10.58,0,0,1,367,98.59q3.83-3.24,10.28-3.24,8.46,0,12.19,4.89a10.59,10.59,0,0,1,2.28,6.69h-5.87a7,7,0,0,0-1.51-3.81q-2.19-2.43-7.59-2.43a9.28,9.28,0,0,0-5.45,1.34,4.17,4.17,0,0,0-1.85,3.54,4.33,4.33,0,0,0,2.44,3.84,14.81,14.81,0,0,0,4.14,1.52l4.18,1q6.81,1.62,9.13,3.13,3.62,2.39,3.61,7.48a11.34,11.34,0,0,1-3.78,8.51q-3.78,3.58-11.53,3.58-8.34,0-11.81-3.74a14.09,14.09,0,0,1-3.72-9.25Z"/><path class="cls-3" d="M248.42,164.61A18.22,18.22,0,0,1,255,171V143.44h15.31v78H255.68v-8a21.25,21.25,0,0,1-7.37,7.47A20.58,20.58,0,0,1,238,223.22q-10.12,0-17-8.18t-6.92-21q0-14.78,6.81-23.25t18.2-8.48A18.59,18.59,0,0,1,248.42,164.61Zm3.71,41.13q3.33-4.77,3.34-12.34,0-10.59-5.35-15.15a11.52,11.52,0,0,0-7.63-2.76q-6.63,0-9.72,5a23.16,23.16,0,0,0-3.1,12.42q0,8,3.15,12.79t9.56,4.8Q248.79,210.51,252.13,205.74Z"/><path class="cls-3" d="M316.27,164.85a23.42,23.42,0,0,1,10,8.54,28.28,28.28,0,0,1,4.6,11.94,72.56,72.56,0,0,1,.5,11.46H289.3q.34,8.69,6,12.18a15.33,15.33,0,0,0,8.33,2.17,11.7,11.7,0,0,0,11.49-6.62h15.41Q330,209.66,325,215q-7.77,8.41-21.73,8.42a31.53,31.53,0,0,1-20.34-7.1q-8.81-7.11-8.81-23.12,0-15,8-23t20.65-8A32.88,32.88,0,0,1,316.27,164.85Zm-22.58,13a15.6,15.6,0,0,0-4,8.94h26q-.42-6-4-9.12a13.24,13.24,0,0,0-9-3.12Q296.88,174.59,293.69,177.89Z"/><path class="cls-3" d="M357.45,142.62l3.18.24v12.29c-.85-.11-2.27-.18-4.26-.24s-3.38.39-4.14,1.33a4.84,4.84,0,0,0-1.13,3.1v4.87H361v10.65h-9.9v46.56h-15V174.86h-8.47V164.21h8.26V160.5q0-9.27,3.13-12.77,3.28-5.19,15.84-5.19C355.81,142.54,356.68,142.57,357.45,142.62Z"/><path class="cls-3" d="M379.79,156.79H364.48V142.86h15.31Zm-15.31,6.89h15.31v57.74H364.48Z"/><path class="cls-3" d="M438.29,170.62q6.48,8.2,6.47,21.19,0,13.45-6.39,22.3T420.54,223c-4.79,0-8.65-1-11.55-2.86a22.92,22.92,0,0,1-5.65-5.94v7.26H388.45v-78h15.1V171.2a22,22,0,0,1,6.35-6.14,18.89,18.89,0,0,1,10.45-2.65Q431.81,162.41,438.29,170.62Zm-12.62,35.17q3.25-4.71,3.26-12.39a27.65,27.65,0,0,0-1.61-10.17q-3-7.64-11.21-7.63t-11.38,7.47a27.79,27.79,0,0,0-1.6,10.28q0,7.41,3.31,12.29t10.09,4.87A10.47,10.47,0,0,0,425.67,205.79Z"/><path class="cls-3" d="M481.91,162.33l1.29.08v15.47c-.95-.11-1.8-.18-2.54-.22s-1.35,0-1.8,0q-9.11,0-12.24,5.94-1.74,3.33-1.74,10.27v27.6H449.67V163.68h14.41v10.06q3.5-5.76,6.09-7.89,4.23-3.54,11-3.55Q481.61,162.3,481.91,162.33Z"/><path class="cls-3" d="M502.15,156.79H486.83V142.86h15.32Zm-15.32,6.89h15.32v57.74H486.83Z"/><path class="cls-3" d="M526.76,221.42h-15.1V143.34h15.1Z"/><path class="cls-3" d="M551.47,221.42h-15.1V143.34h15.1Z"/><path class="cls-3" d="M583.65,186.3a23.78,23.78,0,0,0,6-1.32q3.26-1.38,3.25-4.3c0-2.36-.83-4-2.49-4.9a15.81,15.81,0,0,0-7.33-1.35c-3.62,0-6.18.89-7.69,2.65a11,11,0,0,0-2.14,5.3H558.71A22.1,22.1,0,0,1,563,169.93q6-7.62,20.64-7.63a36.9,36.9,0,0,1,16.92,3.76q7.4,3.76,7.4,14.2v26.49c0,1.83,0,4.06.1,6.67a8.38,8.38,0,0,0,.91,4,5.28,5.28,0,0,0,2.22,1.75v2.22H594.74a15.67,15.67,0,0,1-1-3.28c-.18-1-.32-2.19-.42-3.5a31.18,31.18,0,0,1-7.25,5.77A21.84,21.84,0,0,1,575,223.22a19.15,19.15,0,0,1-13-4.47q-5.14-4.49-5.14-12.69,0-10.65,8.27-15.42,4.53-2.59,13.34-3.7Zm9.23,7A17,17,0,0,1,590,194.8a23.86,23.86,0,0,1-4.05,1l-3.44.64a22.75,22.75,0,0,0-6.94,2.07A6.87,6.87,0,0,0,572,205c0,2.58.72,4.44,2.18,5.59a8.3,8.3,0,0,0,5.29,1.72,15.84,15.84,0,0,0,9.12-2.86q4.17-2.86,4.33-10.44Z"/><path class="cls-3" d="M609.76,175V164.21h8v-16.1h14.94v16.1h9.38V175h-9.38v30.52c0,2.36.3,3.84.9,4.42s2.44.87,5.51.87c.46,0,.94,0,1.45,0l1.52-.08V222l-7.15.27q-10.71.36-14.63-3.71-2.54-2.59-2.54-8V175Z"/><path class="cls-3" d="M694.55,214.36q-7.31,9-22.2,9t-22.2-9q-7.29-9-7.3-21.73a33.73,33.73,0,0,1,7.3-21.65q7.32-9.15,22.2-9.15t22.2,9.15a33.68,33.68,0,0,1,7.31,21.65Q701.86,205.33,694.55,214.36ZM682.47,206c2.36-3.13,3.55-7.6,3.55-13.38s-1.19-10.24-3.55-13.36-5.76-4.68-10.17-4.68-7.81,1.56-10.2,4.68-3.57,7.58-3.57,13.36,1.18,10.25,3.57,13.38,5.78,4.71,10.2,4.71S680.11,209.15,682.47,206Z"/><path class="cls-3" d="M739.32,162.33l1.29.08v15.47c-.94-.11-1.8-.18-2.53-.22s-1.35,0-1.81,0q-9.1,0-12.24,5.94-1.74,3.33-1.74,10.27v27.6H707.08V163.68h14.41v10.06q3.5-5.76,6.1-7.89c2.82-2.36,6.5-3.55,11-3.55Q739,162.3,739.32,162.33Z"/></g></g></svg>