<svg width="250" height="89" viewBox="0 0 250 89" fill="none" xmlns="http://www.w3.org/2000/svg">
<g clip-path="url(#clip0_72_270)">
<path d="M37.4961 50.1816L30.6437 2.94352L27.9871 33.0572L27.3254 33.0943L25.8638 25.9887L22.7245 33.388L20.2266 20.446L17.6746 24.868H1.71818V24.1963H17.2864L20.5473 18.5557L22.9676 31.1027L26.09 23.7439L27.5212 30.7145L30.2251 0.0202536L30.8935 0L37.7358 47.1773L40.2877 16.5674L40.9494 16.5303L43.6363 30.0529L45.7596 24.6418L67.009 24.7532L67.0056 25.425L46.2153 25.317L43.4237 32.426L40.7569 19.0012L38.1611 50.1614L37.4961 50.1816Z" fill="url(#paint0_linear_72_270)"/>
<path d="M58.6206 34.0935C44.9191 24.5136 34.2927 36.8615 33.226 38.1679C32.1627 36.8683 21.5363 24.5203 7.83138 34.0935C-6.58916 44.1832 2.70048 57.6417 5.98831 60.9329C8.41874 63.3566 31.6125 86.7123 33.226 88.3393C34.8395 86.7123 58.0366 63.3599 60.4671 60.9329C63.765 57.6417 73.0445 44.1832 58.6206 34.0935Z" fill="#C70B15"/>
<path d="M77.9493 41.0607C77.9693 41.6364 78.1545 42.1941 78.4826 42.6675C79.0182 43.3426 79.9521 43.6802 81.2844 43.6802C82.013 43.6959 82.7332 43.5214 83.3738 43.1739C83.6571 43.0251 83.8922 42.7988 84.0518 42.5215C84.2113 42.2442 84.2888 41.9272 84.2751 41.6076C84.2804 41.3573 84.2159 41.1104 84.0889 40.8946C83.962 40.6788 83.7775 40.5026 83.5561 40.3856C82.9722 40.1221 82.3608 39.924 81.7333 39.7949L80.0455 39.3763C79.2089 39.2034 78.4032 38.9053 77.6556 38.4919C77.2334 38.2605 76.8825 37.918 76.6409 37.5015C76.3994 37.085 76.2763 36.6104 76.2851 36.129C76.2678 35.5852 76.3749 35.0445 76.5984 34.5484C76.8219 34.0523 77.1558 33.6139 77.5746 33.2665C78.4365 32.5374 79.5943 32.1728 81.0481 32.1728C82.9474 32.1728 84.319 32.723 85.1629 33.8235C85.6695 34.4662 85.94 35.2634 85.9292 36.0817H83.9511C83.9097 35.612 83.7313 35.1648 83.438 34.7956C82.9451 34.2488 82.0877 33.9754 80.8793 33.9754C80.234 33.9322 79.5913 34.0902 79.0396 34.4277C78.8431 34.558 78.6829 34.7359 78.5737 34.9449C78.4645 35.1538 78.4099 35.387 78.4151 35.6226C78.4183 35.8935 78.4967 36.1581 78.6415 36.387C78.7864 36.6159 78.992 36.8 79.2354 36.9189C79.6735 37.1576 80.1444 37.3304 80.6329 37.432L82.0439 37.7695C83.5764 38.1341 84.6037 38.4863 85.1258 38.8261C85.9404 39.3639 86.3477 40.2056 86.3477 41.351C86.3496 41.8931 86.2366 42.4294 86.0161 42.9245C85.7955 43.4197 85.4726 43.8625 85.0684 44.2237C84.2177 45.0293 82.9204 45.4321 81.1763 45.4321C79.2995 45.4321 77.9706 45.0113 77.1898 44.1697C76.4034 43.3177 75.9577 42.2064 75.9374 41.0472L77.9493 41.0607Z" fill="#565758"/>
<path d="M89.5849 32.5137L91.9816 42.33L94.412 32.5137H96.775L99.2189 42.2726L101.767 32.5137H103.86L100.242 44.9697H98.0678L95.5294 35.3256L93.0753 44.9697H90.898L87.3064 32.5137H89.5849Z" fill="#565758"/>
<path d="M105.818 27.8824H107.948V30.2453H105.818V27.8824ZM105.818 32.5711H107.948V44.9697H105.818V32.5711Z" fill="#565758"/>
<path d="M112.357 41.0608C112.377 41.6364 112.562 42.1942 112.89 42.6675C113.426 43.3427 114.36 43.6802 115.692 43.6802C116.42 43.6959 117.141 43.5214 117.781 43.1739C118.065 43.0251 118.3 42.7988 118.459 42.5215C118.619 42.2442 118.696 41.9273 118.683 41.6076C118.688 41.3573 118.623 41.1104 118.496 40.8947C118.369 40.6789 118.185 40.5026 117.964 40.3856C117.38 40.1221 116.768 39.924 116.141 39.7949L114.453 39.3763C113.618 39.1996 112.815 38.8981 112.07 38.4818C111.648 38.2504 111.297 37.9079 111.055 37.4914C110.814 37.0749 110.691 36.6003 110.699 36.1189C110.682 35.5751 110.789 35.0344 111.013 34.5383C111.236 34.0422 111.57 33.6038 111.989 33.2564C112.851 32.5273 114.008 32.1627 115.462 32.1627C117.364 32.1627 118.735 32.7129 119.577 33.8134C120.084 34.4561 120.354 35.2533 120.343 36.0716H118.365C118.324 35.6019 118.146 35.1547 117.852 34.7855C117.359 34.2387 116.502 33.9653 115.293 33.9653C114.648 33.9221 114.005 34.0801 113.454 34.4176C113.257 34.5479 113.097 34.7258 112.988 34.9348C112.879 35.1437 112.824 35.3769 112.829 35.6125C112.832 35.8834 112.911 36.148 113.056 36.3769C113.201 36.6058 113.406 36.7899 113.65 36.9088C114.088 37.1475 114.559 37.3203 115.047 37.4219L116.458 37.7594C117.991 38.124 119.018 38.4762 119.54 38.816C120.352 39.3538 120.76 40.1955 120.762 41.3409C120.764 41.883 120.651 42.4193 120.43 42.9144C120.21 43.4096 119.887 43.8524 119.483 44.2136C118.632 45.0192 117.335 45.422 115.591 45.422C113.714 45.422 112.385 45.0012 111.604 44.1596C110.818 43.3076 110.372 42.1963 110.352 41.0371L112.357 41.0608Z" fill="#565758"/>
<path d="M124.266 41.0608C124.287 41.6367 124.473 42.1945 124.803 42.6675C125.338 43.3427 126.272 43.6802 127.604 43.6802C128.333 43.6956 129.053 43.5211 129.694 43.1739C129.977 43.0251 130.212 42.7988 130.372 42.5215C130.531 42.2442 130.609 41.9273 130.595 41.6076C130.6 41.3573 130.536 41.1104 130.409 40.8947C130.282 40.6789 130.097 40.5026 129.876 40.3856C129.292 40.1228 128.681 39.9247 128.053 39.7949L126.365 39.3763C125.53 39.2029 124.726 38.9048 123.979 38.4919C123.556 38.2611 123.205 37.9187 122.963 37.5021C122.722 37.0855 122.599 36.6105 122.608 36.129C122.592 35.5885 122.698 35.0512 122.919 34.5577C123.14 34.0642 123.47 33.6273 123.884 33.28C124.746 32.5509 125.903 32.1863 127.354 32.1863C129.258 32.1863 130.63 32.7365 131.469 33.837C131.977 34.4794 132.249 35.2766 132.239 36.0953H130.257C130.22 35.6253 130.042 35.1774 129.748 34.8091C129.255 34.2623 128.401 33.9889 127.186 33.9889C126.54 33.9462 125.898 34.1042 125.346 34.4412C125.15 34.5722 124.99 34.7503 124.881 34.9591C124.772 35.1678 124.717 35.4006 124.722 35.6362C124.725 35.9074 124.804 36.1723 124.949 36.4012C125.095 36.6301 125.301 36.814 125.545 36.9324C125.983 37.1722 126.454 37.3452 126.943 37.4455L128.354 37.783C129.886 38.1476 130.913 38.4998 131.436 38.8396C132.25 39.3775 132.656 40.2191 132.654 41.3646C132.657 41.9064 132.545 42.4427 132.325 42.9379C132.105 43.4331 131.782 43.876 131.378 44.2372C130.528 45.0428 129.23 45.4457 127.486 45.4457C125.609 45.4457 124.28 45.0248 123.5 44.1832C122.714 43.3302 122.268 42.2198 122.244 41.0608H124.266Z" fill="#565758"/>
<path d="M83.8566 55.5657C84.7688 56.0835 85.5334 56.8261 86.0777 57.7227V48.4196H91.2457V74.7492H86.3072V72.0487C85.7018 73.084 84.8464 73.951 83.8194 74.5703C82.747 75.1287 81.5474 75.3974 80.3392 75.3501C78.0618 75.3501 76.1489 74.4296 74.6007 72.5888C73.0524 70.748 72.2738 68.3851 72.2648 65.5001C72.2648 62.174 73.031 59.5579 74.5635 57.6518C76.0961 55.7457 78.1439 54.7916 80.7071 54.7893C81.8068 54.7676 82.8929 55.0354 83.8566 55.5657V55.5657ZM85.1089 69.4495C85.8583 68.3761 86.2341 66.9876 86.2363 65.284C86.2363 62.9009 85.6344 61.1962 84.4304 60.17C83.7133 59.5574 82.7979 59.2263 81.8548 59.2383C80.3628 59.2383 79.2691 59.8009 78.5737 60.9261C77.838 62.1976 77.4753 63.6506 77.5273 65.1186C77.5273 66.9189 77.8817 68.3581 78.5906 69.436C79.2995 70.514 80.3752 71.054 81.8177 71.0563C83.2602 71.0586 84.3573 70.523 85.1089 69.4495Z" fill="#565758"/>
<path d="M106.76 55.6467C108.137 56.2655 109.309 57.2659 110.136 58.5295C110.954 59.7367 111.485 61.1155 111.688 62.5599C111.847 63.8429 111.903 65.1364 111.857 66.4284H97.656C97.7325 68.384 98.4076 69.7544 99.6813 70.5398C100.529 71.0475 101.505 71.3017 102.493 71.2723C103.29 71.336 104.087 71.1565 104.78 70.7576C105.472 70.3586 106.027 69.7589 106.372 69.0377H111.574C111.454 70.1944 110.832 71.3736 109.707 72.5753C107.958 74.4679 105.513 75.4153 102.372 75.4176C99.8726 75.4496 97.442 74.6011 95.5057 73.0209C93.5231 71.4209 92.5318 68.8194 92.5318 65.2165C92.5318 61.8409 93.432 59.253 95.2323 57.4526C97.0326 55.6523 99.3562 54.7522 102.203 54.7522C103.768 54.7257 105.321 55.0305 106.76 55.6467ZM99.1379 60.035C98.3755 60.8699 97.9021 61.928 97.7876 63.0528H106.564C106.47 61.7025 106.02 60.6763 105.214 59.9742C104.367 59.2584 103.284 58.883 102.176 58.921C100.868 58.93 99.8558 59.3059 99.1379 60.0485V60.035Z" fill="#565758"/>
<path d="M120.661 48.1427L121.734 48.2237V52.3723C121.447 52.3352 120.968 52.3116 120.296 52.2913C119.624 52.2711 119.155 52.423 118.899 52.7403C118.653 53.0337 118.518 53.404 118.517 53.7867V55.4306H121.859V59.0257H118.517V74.7424H113.454V59.0257H110.595V55.4306H113.383V54.1783C113.383 52.0922 113.735 50.6553 114.439 49.8677C115.178 48.6997 116.96 48.1157 119.786 48.1157C120.107 48.1157 120.401 48.1259 120.661 48.1427Z" fill="#565758"/>
<path d="M128.202 52.926H123.034V48.2238H128.202V52.926ZM123.034 55.2517H128.202V74.7424H123.034V55.2517Z" fill="#565758"/>
<path d="M147.949 57.5944C149.407 59.4397 150.135 61.824 150.133 64.7473C150.133 67.7741 149.414 70.2833 147.976 72.2749C146.538 74.2665 144.532 75.2668 141.957 75.2758C140.34 75.2758 139.037 74.9382 138.058 74.3104C137.307 73.762 136.661 73.0828 136.151 72.3053V74.7559H131.125V48.4263H136.222V57.7902C136.789 56.9615 137.518 56.2564 138.366 55.7176C139.43 55.0831 140.655 54.7722 141.893 54.8231C144.472 54.8231 146.491 55.7468 147.949 57.5944ZM143.689 69.4664C144.42 68.4064 144.787 67.0123 144.789 65.284C144.825 64.1158 144.64 62.9512 144.246 61.851C143.571 60.1317 142.309 59.2732 140.462 59.2755C138.614 59.2777 137.334 60.1182 136.621 61.797C136.224 62.9094 136.04 64.0868 136.08 65.2671C136.08 66.9347 136.453 68.3176 137.198 69.4158C137.943 70.5139 139.078 71.0619 140.604 71.0597C141.212 71.0821 141.815 70.9472 142.356 70.6681C142.896 70.3889 143.355 69.975 143.689 69.4664V69.4664Z" fill="#565758"/>
<path d="M162.673 54.796L163.109 54.8231V60.0451C162.788 60.008 162.501 59.9843 162.251 59.9708C162.002 59.9573 161.796 59.9708 161.644 59.9708C159.594 59.9708 158.216 60.6392 157.512 61.9759C157.12 62.7253 156.925 63.8809 156.925 65.4427V74.7593H151.79V55.2517H156.655V58.6476C157.442 57.3514 158.128 56.4636 158.71 55.9843C159.662 55.1876 160.9 54.7882 162.424 54.7859C162.523 54.7859 162.606 54.7893 162.673 54.796Z" fill="#565758"/>
<path d="M169.506 52.926H164.334V48.2238H169.506V52.926ZM164.334 55.2517H169.506V74.7424H164.334V55.2517Z" fill="#565758"/>
<path d="M177.813 74.7425H172.716V48.3858H177.813V74.7425Z" fill="#565758"/>
<path d="M186.154 74.7425H181.057V48.3858H186.154V74.7425Z" fill="#565758"/>
<path d="M197.017 62.8874C197.708 62.827 198.389 62.6772 199.042 62.4418C199.776 62.1312 200.141 61.6474 200.139 60.9903C200.139 60.1936 199.859 59.64 199.299 59.3362C198.522 58.9893 197.674 58.8331 196.824 58.8805C195.602 58.8805 194.738 59.1809 194.228 59.7751C193.834 60.2973 193.585 60.9145 193.506 61.5641H188.598C188.642 60.0486 189.147 58.5827 190.046 57.3615C191.396 55.6467 193.719 54.7882 197.013 54.7859C198.991 54.7495 200.949 55.1846 202.725 56.0551C204.39 56.9013 205.223 58.4991 205.223 60.8485V69.7904C205.223 70.4082 205.223 71.1609 205.256 72.042C205.245 72.5105 205.351 72.9745 205.564 73.3922C205.755 73.6536 206.014 73.8578 206.313 73.9829V74.7323H200.76C200.607 74.3767 200.494 74.0054 200.423 73.6251C200.362 73.2876 200.315 72.8859 200.281 72.4437C199.567 73.2112 198.742 73.8677 197.834 74.3914C196.695 75.037 195.405 75.3678 194.097 75.3501C192.498 75.4075 190.934 74.8699 189.708 73.8412C188.552 72.8307 187.973 71.4029 187.973 69.5575C187.973 67.1609 188.904 65.4258 190.765 64.3524C191.784 63.7695 193.285 63.3532 195.268 63.1034L197.017 62.8874ZM200.132 65.2503C199.825 65.4497 199.5 65.6192 199.16 65.7566C198.715 65.9088 198.258 66.0218 197.793 66.0942L196.632 66.3102C195.819 66.4165 195.028 66.6524 194.289 67.009C193.9 67.2208 193.58 67.5398 193.366 67.928C193.153 68.3163 193.055 68.7576 193.084 69.1997C193.084 70.0706 193.327 70.6985 193.82 71.0867C194.331 71.4798 194.961 71.6849 195.606 71.6673C196.707 71.6701 197.782 71.333 198.684 70.7019C199.623 70.0582 200.11 68.8835 200.146 67.1777L200.132 65.2503Z" fill="#565758"/>
<path d="M205.83 59.0729V55.4307H208.531V49.9959H213.574V55.4307H216.74V59.0729H213.574V69.3752C213.574 70.1719 213.675 70.6715 213.878 70.8673C214.08 71.063 214.701 71.1609 215.738 71.1609C215.893 71.1609 216.055 71.1609 216.227 71.1609L216.74 71.1339V74.9382L214.327 75.0294C211.917 75.1104 210.27 74.6929 209.388 73.777C208.817 73.1942 208.531 72.294 208.531 71.0765V59.0729H205.83Z" fill="#565758"/>
<path d="M234.452 72.3593C232.807 74.3846 230.309 75.3973 226.958 75.3973C223.607 75.3973 221.109 74.3846 219.464 72.3593C217.824 70.3339 217.002 67.8889 217 65.0241C216.946 62.3756 217.818 59.7911 219.464 57.7159C221.112 55.6568 223.61 54.6273 226.958 54.6273C230.307 54.6273 232.805 55.6568 234.452 57.7159C236.101 59.79 236.974 62.3749 236.92 65.0241C236.92 67.8821 236.097 70.3272 234.452 72.3593ZM230.374 69.5373C231.171 68.4807 231.573 66.9718 231.573 65.0207C231.573 63.0696 231.171 61.5641 230.374 60.5109C229.578 59.4577 228.43 58.9311 226.941 58.9311C225.453 58.9311 224.305 59.4577 223.498 60.5109C222.691 61.5641 222.293 63.0696 222.293 65.0207C222.293 66.9718 222.691 68.4807 223.498 69.5373C224.305 70.5938 225.449 71.1272 226.941 71.1272C228.433 71.1272 229.578 70.6006 230.374 69.5373Z" fill="#565758"/>
<path d="M249.565 54.796L250 54.8231V60.0451C249.683 60.008 249.392 59.9843 249.146 59.9708C248.9 59.9573 248.69 59.9708 248.535 59.9708C246.487 59.9708 245.11 60.6392 244.403 61.9759C244.012 62.7253 243.816 63.8809 243.816 65.4427V74.7593H238.682V55.2517H243.546V58.6476C244.334 57.3514 245.02 56.4636 245.605 55.9843C246.557 55.1876 247.799 54.7859 249.318 54.7859C249.41 54.7859 249.493 54.7893 249.565 54.796Z" fill="#565758"/>
</g>
<defs>
<linearGradient id="paint0_linear_72_270" x1="1.71818" y1="25.0908" x2="67.009" y2="25.0908" gradientUnits="userSpaceOnUse">
<stop stop-color="#A2A3A4" stop-opacity="0"/>
<stop offset="0.5" stop-color="#A2A3A4"/>
<stop offset="1" stop-color="#A2A3A4" stop-opacity="0"/>
</linearGradient>
<clipPath id="clip0_72_270">
<rect width="250" height="88.3393" fill="white"/>
</clipPath>
</defs>
</svg>
